<svg xmlns="http://www.w3.org/2000/svg" xmlns:xlink="http://www.w3.org/1999/xlink" id="body_7" preserveAspectRatio="xMinYMin meet" viewBox="0 0 816 1056"><defs><clipPath id="1"><path id="" clip-rule="evenodd" transform="matrix(1 0 0 1 0 0)" d="M0 792L0 0L0 0L612 0L612 0L612 792L612 792L0 792z" /></clipPath><clipPath id="2"><path id="" clip-rule="evenodd" transform="matrix(1 0 0 1 0 0)" d="M0 792L612 792L612 792L612 0L612 0L0 0z" /></clipPath><clipPath id="3"><path id="" clip-rule="evenodd" transform="matrix(1 0 0 1 0 0)" d="M115.494 700.384L495.929 700.384L495.929 700.384L495.929 497.312L495.929 497.312L115.494 497.312z" /></clipPath><clipPath id="4"><path id="" clip-rule="evenodd" transform="matrix(1 0 0 1 0 0)" d="M0 792L612 792L612 792L612 0L612 0L0 0z" /></clipPath><clipPath id="5"><path id="" clip-rule="evenodd" transform="matrix(1 0 0 1 0 0)" d="M0 792L612 792L612 792L612 0L612 0L0 0z" /></clipPath></defs><g transform="matrix(1.333333 0 0 1.333333 0 0)"><g clip-path="url(#1)"><g clip-path="url(#2)"><path id="523" transform="matrix(1 0 0 -1 0 792)" d="M306 697.3049C 313.092 697.3049 318.841 703.0539 318.841 710.1459C 318.841 717.2369 313.092 722.9858 306 722.9858C 298.908 722.9858 293.159 717.2369 293.159 710.1459C 293.159 703.0539 298.908 697.3049 306 697.3049z" stroke="#0077E5" stroke-width="1" fill="none" /></g><path id="533" transform="matrix(1 0 0 -1 0 792)" d="M300.9068 27.5404L306.7428 21.7044L306.7428 21.7044L312.5788 27.5404" stroke="#505C7A" stroke-width="0.7" fill="none" /><g clip-path="url(#3)"><g transform="matrix(0.3741892 0 0 0.3741892 115.4948 497.3115)"><g transform="matrix(1 0 0 1 0 0)"><image x="0" y="0" xlink:href="img_14.png" width="1020" height="545" /></g></g></g><g clip-path="url(#4)"><path id="535" transform="matrix(1 0 0 -1 0 792)" d="M495.5261 91.465C 496.4921 92.131 497.0351 93.10699 497.1101 94.252C 497.1511 95.14 497.2141 96.101 497.1771 97.064C 497.1771 97.064 497.1751 97.967 497.1731 98.92C 497.1731 98.92 496.9651 102.223 497.0051 102.589C 497.2291 104.624 497.0511 107.731 497.0461 108.327C 497.0871 110.433 496.9111 108.519 497.0051 112.442C 497.1001 116.366 497.1791 120.038 497.1601 121.139C 497.1791 122.522 497.1541 124.262 497.1221 125.983C 497.0971 127.706 497.0711 129.409 497.0511 130.718C 496.9091 135.726 496.8921 139.974 496.9391 144.399C 497.0221 148.823 497.1081 153.424 497.2141 159.135C 497.1191 161.581 497.1541 164.904 497.1791 168.121C 497.2031 171.336 497.2161 174.445 497.0771 176.462C 497.3011 184.267 497.2441 190.821 497.2091 196.891C 497.1741 202.961 497.1621 208.551 497.4761 214.426C 497.5141 216.911 497.4511 220.983 497.3951 225.119C 497.3381 229.254 497.2881 233.45 497.3521 236.178C 497.5781 243.676 497.5191 251.63 497.4561 259.437C 497.3941 267.242 497.3281 274.901 497.5421 281.806C 497.4261 283.266 497.4091 285.607 497.4191 288.221C 497.4321 290.835 497.4471 293.723 497.4601 296.277C 497.4581 299.524 497.4571 301.755 497.4551 304.108C 497.4341 306.461 497.4111 308.936 497.3781 312.669C 497.4111 312.751 497.4371 312.992 497.4571 313.357C 497.4881 313.67 497.4901 314.431 497.2151 315.103C 496.9511 315.803 496.4191 316.536 495.6251 317.036C 495.2321 317.286 494.7771 317.477 494.2901 317.577C 494.0451 317.622 493.7961 317.652 493.5431 317.655L493.5431 317.655L492.9451 317.656C 489.8081 317.644 486.4171 317.631 485.0731 317.626C 476.1661 317.558 469.2151 317.505 462.3791 317.453C 455.5421 317.379 448.8181 317.305 440.3661 317.213C 435.0001 317.311 432.1511 317.442 427.4251 317.366C 422.7001 317.331 416.0951 317.283 410.6431 317.243L410.6431 317.243L410.6431 317.141C 408.6081 317.365 405.5011 317.187 404.9061 317.182C 402.7991 317.223 404.7131 317.048 400.7901 317.142C 396.8671 317.236 393.1941 317.315 392.0931 317.296C 390.7101 317.315 388.9701 317.29 387.2491 317.259C 385.5271 317.233 383.8231 317.207 382.5141 317.187C 377.5071 317.045 373.2581 317.028 368.8341 317.075C 364.4101 317.158 359.8091 317.244 354.0971 317.35C 351.6511 317.255 348.3281 317.29 345.1121 317.315C 341.8961 317.339 338.7871 317.353 336.7701 317.213C 328.9651 317.437 322.4111 317.38 316.3411 317.345C 310.2691 317.31 304.6811 317.298 298.8061 317.612C 296.3221 317.65 292.2481 317.587 288.1131 317.531C 283.9781 317.474 279.7821 317.424 277.0551 317.488C 269.5571 317.715 261.6021 317.655 253.7951 317.592C 245.9901 317.53 238.3321 317.465 231.4261 317.678C 229.9661 317.562 227.6261 317.545 225.0121 317.555C 222.3981 317.569 219.5101 317.583 216.9551 317.596C 213.7091 317.594 211.4771 317.593 209.1241 317.591C 206.7711 317.57 204.2961 317.548 200.5631 317.514C 200.2361 317.647 197.3551 317.666 194.2191 317.656C 191.0831 317.644 187.6931 317.631 186.3481 317.626C 177.4411 317.558 170.4911 317.505 163.6541 317.453C 156.8171 317.379 150.0941 317.305 141.6411 317.213C 136.2761 317.311 133.4261 317.442 128.7011 317.366C 126.3381 317.347 123.5051 317.323 120.5821 317.3C 119.8501 317.296 119.1131 317.293 118.3761 317.289C 117.5001 317.283 116.6351 316.944 115.9911 316.372C 115.3401 315.806 114.9121 315.006 114.7951 314.173C 114.7091 313.298 114.7821 312.717 114.7691 311.999C 114.7691 311.999 115.1561 300.318 115.4601 300.057C 115.7121 299.839 115.8871 299.962 116.0271 302.1C 116.1361 303.739 116.1701 307.293 116.0541 308.611C 116.0371 309.855 116.0221 310.868 116.0061 311.999L116.0061 311.999L116.0561 311.999C 116.0661 312.762 115.9751 313.666 116.0711 314.163C 116.1811 314.739 116.5141 315.277 116.9951 315.638C 117.5051 316.012 118.0171 316.16 118.7871 316.15C 119.5511 316.167 120.3241 316.184 121.1201 316.201C 124.3001 316.248 125.9091 315.914 128.7011 315.997C 131.7361 316.038 135.5711 316.244 137.5451 316.179C 139.5191 316.115 141.5461 316.056 144.7921 316.117C 149.8441 316.397 155.6151 316.102 162.5091 316.017C 169.4041 315.933 177.4221 316.059 183.3131 316.256C 195.4021 316.224 203.8991 315.854 217.0131 315.854C 227.1891 315.854 236.1071 316.209 246.2431 316.256C 248.7501 316.244 250.4821 316.156 252.2971 316.075C 254.1111 315.995 260.2781 315.916 263.1151 315.936C 276.7601 315.882 286.0061 316.176 297.9481 316.14C 309.8901 316.105 320.2561 315.746 334.3751 315.746C 343.3971 315.813 353.4791 315.887 363.4791 315.961C 373.4791 316.006 372.8521 315.795 381.5471 315.746C 384.1411 315.741 396.7231 315.902 398.8611 315.853C 401.0031 315.804 403.2471 315.765 406.2571 315.8C 407.5121 315.829 408.8281 315.858 410.1791 315.889C 411.5301 315.911 412.9161 315.933 414.3121 315.956L414.3121 315.956L414.3121 316.054C 416.1261 316.102 417.9321 316.151 419.8441 316.201C 423.0251 316.248 424.6341 315.914 427.4251 315.997C 430.4611 316.038 434.2961 316.244 436.2701 316.179C 438.2441 316.115 440.2701 316.056 443.5161 316.117C 448.5681 316.397 454.3391 316.102 461.2341 316.017C 468.1291 315.933 476.1471 316.059 482.0371 316.256C 485.0601 316.229 487.8581 316.204 490.5591 316.18C 491.2341 316.169 491.9041 316.159 492.5691 316.149L492.5691 316.149L493.5491 316.128C 493.8191 316.122 494.0821 316.057 494.3291 315.963C 495.3391 315.572 495.9931 314.56 495.9071 313.454C 495.8101 308.179 495.7181 302.777 495.7181 296.22C 495.7181 286.042 496.0731 277.126 496.1201 266.989C 496.1081 264.483 496.0191 262.75 495.9391 260.935C 495.8591 259.121 495.7801 252.954 495.8001 250.117C 495.7461 236.472 496.0391 227.226 496.0041 215.284C 495.9691 203.343 495.6101 192.976 495.6101 178.857C 495.6771 169.835 495.7511 159.753 495.8251 149.753C 495.8701 139.753 495.6591 140.381 495.6101 131.685C 495.6051 129.092 495.7661 116.51 495.7171 114.371C 495.6671 112.229 495.6291 109.985 495.6641 106.975C 495.6931 105.72 495.7221 104.405 495.7521 103.054C 495.7751 101.702 495.7971 100.316 495.8201 98.92L495.8201 98.92L496.0151 96.87299C 496.0451 96.284 496.0691 95.822 496.0971 95.272C 496.1171 94.742 496.1971 94.189 496.1291 93.741C 496.0531 93.267 495.8521 92.797 495.5361 92.41599C 495.3861 92.228 494.9571 91.781 494.2421 91.559C 493.5551 91.34599 492.5411 91.437 491.6541 91.369C 489.8531 91.30199 488.2861 91.211 488.6761 91.086C 490.9801 90.861 492.4001 90.8 493.3751 90.78899C 494.4661 90.78799 495.0461 91.154 495.5261 91.465" stroke="none" fill="#969CAD" fill-rule="nonzero" /><path id="536" transform="matrix(1 0 0 -1 0 792)" d="M493.1184 91.3647L492.8084 91.5117L492.8084 91.5117L492.5214 91.6327L492.5214 91.6327L492.2414 91.6977L492.2414 91.6977L492.0564 91.6937L492.0564 91.6937L492.0574 91.7507L492.0574 91.7507L491.8664 91.6817L491.8664 91.6817L491.8364 91.6707C 491.7964 91.6697 491.9044 91.6677 491.7444 91.6657L491.7444 91.6657L491.2854 91.6617C 490.6814 91.6567 490.1104 91.6527 489.6014 91.6497C 488.5844 91.6507 487.8154 91.6527 487.5214 91.6537C 480.9914 91.8847 471.0204 91.7177 469.1094 91.7147C 466.1144 91.7357 465.6514 91.7127 464.9704 91.6887C 464.1144 91.6587 462.9134 91.6297 455.9004 91.6897C 443.3054 91.7737 431.5214 91.8527 427.9864 91.8757C 423.5484 91.8697 417.9634 91.8627 412.4404 91.8557C 406.9154 91.8357 401.4484 91.8167 397.2464 91.8007C 381.1764 91.6777 367.5414 91.6757 353.3424 91.7387C 339.1424 91.8377 324.3784 91.9397 306.0474 92.0677C 298.1954 91.9797 287.5304 92.0277 277.2084 92.0647C 266.8884 92.1007 256.9104 92.1247 250.4404 91.9917C 225.3904 92.2447 204.3574 92.2117 184.8744 92.1977C 165.3904 92.1857 147.4564 92.1927 128.6014 92.5287C 126.6084 92.5347 124.2954 92.5407 121.7424 92.5477C 121.1034 92.5477 120.4494 92.5477 119.7814 92.5477C 119.5774 92.5527 119.3544 92.5497 119.1314 92.5477C 118.6624 92.5437 118.1984 92.5387 117.9334 92.5957C 116.9684 92.7977 116.1474 93.7127 116.1954 94.8427C 116.1714 100.7677 116.1454 107.3537 116.1194 113.9887C 116.0624 127.2587 116.0134 140.7237 116.0764 149.4777C 116.3034 173.5437 116.2434 199.0717 116.1814 224.1247C 116.1604 236.6507 116.1404 249.0587 116.1204 261.1037C 116.1324 267.1277 116.1434 273.0597 116.1544 278.8717C 116.1924 284.1597 116.2304 289.3377 116.2664 294.3787C 120.8044 294.4937 128.4234 294.5117 136.7794 294.5007C 145.1694 294.4877 154.4344 294.4737 162.6334 294.4597C 173.0544 294.4617 180.2164 294.4637 187.7684 294.4647C 195.3204 294.4857 203.2604 294.5087 215.2404 294.5427C 216.2884 294.4097 225.5354 294.3907 235.6004 294.3997C 245.6644 294.4127 256.5454 294.4257 260.8604 294.4307C 289.4454 294.4987 311.7524 294.5517 333.6934 294.6037C 355.6354 294.6787 377.2124 294.7517 404.3414 294.8437C 421.5614 294.7457 430.7004 294.6137 445.8694 294.6907C 453.4534 294.7097 462.5444 294.7327 471.9274 294.7567C 476.6184 294.7637 481.3824 294.7707 486.0674 294.7777C 487.1504 294.7807 488.2304 294.7827 489.3024 294.7847L489.3024 294.7847L489.4094 294.7927L489.4094 294.7927L489.6184 294.8137L489.6184 294.8137L489.6184 294.8347C 490.2634 294.9387 490.7824 295.1307 490.8084 295.4327C 490.8304 295.6847 490.8184 295.8597 490.6044 295.9997C 490.4414 296.1077 490.0874 296.1427 489.9564 296.0267L489.9564 296.0267L489.6184 295.9777L489.6184 295.9777L489.5194 295.9657L489.5194 295.9657L489.4114 295.9517L489.4114 295.9517L489.3474 295.9437L489.3474 295.9437L489.3134 295.9387L489.3134 295.9387L489.2954 295.9367L489.2954 295.9367L488.7944 295.9337C 482.6874 295.9077 475.3044 295.8767 470.1994 295.8547C 465.3294 295.8327 461.6084 295.8967 458.0754 295.9617C 454.2024 296.0317 450.5554 296.1027 445.8694 296.0597C 436.1284 296.0187 423.8194 295.8127 417.4874 295.8767C 411.1524 295.9417 404.6494 296.0007 394.2304 295.9387C 378.0164 295.6597 359.4934 295.9547 337.3674 296.0387C 315.2404 296.1237 289.5094 295.9967 270.6034 295.8007C 231.8064 295.9447 204.5344 296.0457 162.4484 296.2027C 154.2844 296.1827 146.3714 296.1647 138.5874 296.1457C 134.6954 296.1267 130.8354 296.1067 126.9914 296.0877C 125.0704 296.0757 123.1524 296.0647 121.2374 296.0537L121.2374 296.0537L118.3654 296.0367L118.3654 296.0367L116.9314 296.0277L116.9314 296.0277L116.1764 296.0237C 115.7694 296.0417 115.3714 295.9147 115.0844 295.6417C 114.7954 295.3757 114.6284 294.9887 114.6314 294.5867L114.6314 294.5867L114.6354 293.7847L114.6354 293.7847L114.6434 292.3497L114.6434 292.3497L114.6614 289.4787C 114.6734 287.5647 114.6854 285.6477 114.6974 283.7287C 114.7184 279.8897 114.7404 276.0357 114.7624 272.1517C 114.7894 264.3837 114.8164 256.4957 114.8444 248.3627C 114.8324 240.3177 114.7444 234.7587 114.6634 228.9357C 114.5834 223.1127 114.5044 203.3177 114.5244 194.2147C 114.5604 172.3187 114.5904 153.9527 114.6194 136.2697C 114.6484 127.4277 114.6764 118.7577 114.7034 109.9017C 114.7124 105.4737 114.7204 100.9997 114.7284 96.4347L114.7284 96.4347L114.7304 94.7167C 114.7384 94.0377 114.9304 93.3547 115.2994 92.7807C 115.6654 92.2057 116.1914 91.7287 116.8124 91.4347C 117.3994 91.1167 118.2054 91.0497 118.7564 91.0717C 121.0904 91.0667 123.4514 91.0637 125.8464 91.0597C 164.1714 90.8877 197.4394 90.7377 242.7534 90.5347C 271.7054 90.5687 304.0604 90.6067 336.1544 90.6447C 368.2474 90.6517 366.2354 90.4437 394.1424 90.3637C 402.4654 90.3707 442.8424 90.4027 449.7114 90.4077C 456.5794 90.3507 463.7824 90.3037 473.4404 90.3287C 477.4684 90.3527 481.6914 90.3767 486.0274 90.4027C 487.9464 90.4127 489.8894 90.4217 491.8474 90.4317L491.8474 90.4317L492.0554 90.4637L492.0554 90.4637L492.0554 90.4847L492.0554 90.4847L492.2594 90.5357L492.2594 90.5357L492.4194 90.6177L492.4194 90.6177L492.7444 90.8027C 492.8534 90.8657 493.5564 90.9767 493.4794 91.2267z" stroke="none" fill="#969CAD" fill-rule="nonzero" /><path id="537" transform="matrix(1 0 0 -1 0 792)" d="M132.635 309.6786C 132.635 309.6786 131.847 310.4786 130.685 310.7996C 129.537 311.1756 128.231 310.9146 127.958 310.7856C 127.585 310.6886 126.915 310.3866 126.369 309.9226C 125.812 309.4716 125.408 308.8796 125.235 308.5646C 124.646 307.3106 124.552 306.2016 124.698 305.0836C 124.883 303.9846 125.359 302.7606 126.662 301.7516C 127.288 301.4386 128.057 301.1376 128.969 301.0526C 129.871 300.9816 130.926 301.1476 131.853 301.7356C 133.544 302.4626 134.555 304.3086 134.51 306.0326L134.51 306.0326L133.268 306.0326C 133.292 304.7476 132.573 303.3936 131.334 302.8066C 130.547 302.3006 129.488 302.1106 128.495 302.3636C 127.503 302.6066 126.603 303.3026 126.115 304.2266C 125.622 305.1446 125.55 306.2656 125.88 307.2096C 126.203 308.1586 126.912 308.9156 127.717 309.3216C 128.699 309.7746 129.378 309.6896 130.532 309.4656C 131.029 309.3756 131.554 309.1276 132.003 308.7596C 132.003 308.7596 132.403 308.4316 132.739 307.8806C 133.084 307.3346 133.271 306.5596 133.268 306.0326L133.268 306.0326L134.51 306.0326C 134.504 307.5016 133.551 308.8366 132.635 309.6786" stroke="none" fill="#969CAD" fill-rule="nonzero" /><path id="538" transform="matrix(1 0 0 -1 0 792)" d="M148.282 309.6786C 148.282 309.6786 147.494 310.4786 146.332 310.7996C 145.185 311.1756 143.878 310.9146 143.605 310.7856C 143.233 310.6886 142.562 310.3866 142.016 309.9226C 141.459 309.4716 141.055 308.8796 140.882 308.5646C 140.293 307.3106 140.199 306.2016 140.345 305.0836C 140.53 303.9846 141.006 302.7606 142.309 301.7516C 142.935 301.4386 143.704 301.1376 144.615 301.0526C 145.518 300.9816 146.573 301.1476 147.5 301.7356C 149.191 302.4626 150.202 304.3086 150.157 306.0326L150.157 306.0326L148.915 306.0326C 148.939 304.7476 148.22 303.3936 146.981 302.8066C 146.194 302.3006 145.135 302.1106 144.142 302.3636C 143.15 302.6066 142.25 303.3026 141.762 304.2266C 141.269 305.1446 141.197 306.2656 141.527 307.2096C 141.85 308.1586 142.559 308.9156 143.364 309.3216C 144.346 309.7746 145.025 309.6896 146.179 309.4656C 146.677 309.3756 147.202 309.1276 147.65 308.7596C 147.65 308.7596 148.05 308.4316 148.386 307.8806C 148.732 307.3346 148.918 306.5596 148.915 306.0326L148.915 306.0326L150.157 306.0326C 150.152 307.5016 149.198 308.8366 148.282 309.6786" stroke="none" fill="#969CAD" fill-rule="nonzero" /><path id="539" transform="matrix(1 0 0 -1 0 792)" d="M163.9292 309.6786C 163.9292 309.6786 163.1412 310.4786 161.9792 310.7996C 160.8312 311.1756 159.5252 310.9146 159.2522 310.7856C 158.8792 310.6886 158.2092 310.3866 157.6632 309.9226C 157.1052 309.4716 156.7022 308.8796 156.5292 308.5646C 155.9402 307.3106 155.8462 306.2016 155.9922 305.0836C 156.1772 303.9846 156.6532 302.7606 157.9562 301.7516C 158.5822 301.4386 159.3512 301.1376 160.2622 301.0526C 161.1652 300.9816 162.2202 301.1476 163.1472 301.7356C 164.8382 302.4626 165.8492 304.3086 165.8042 306.0326L165.8042 306.0326L164.5622 306.0326C 164.5862 304.7476 163.8672 303.3936 162.6282 302.8066C 161.8412 302.3006 160.7822 302.1106 159.7892 302.3636C 158.7972 302.6066 157.8972 303.3026 157.4092 304.2266C 156.9152 305.1446 156.8442 306.2656 157.1742 307.2096C 157.4972 308.1586 158.2052 308.9156 159.0112 309.3216C 159.9932 309.7746 160.6722 309.6896 161.8262 309.4656C 162.3232 309.3756 162.8492 309.1276 163.2972 308.7596C 163.2972 308.7596 163.6972 308.4316 164.0332 307.8806C 164.3782 307.3346 164.5652 306.5596 164.5622 306.0326L164.5622 306.0326L165.8042 306.0326C 165.7992 307.5016 164.8452 308.8366 163.9292 309.6786" stroke="none" fill="#969CAD" fill-rule="nonzero" /><path id="540" transform="matrix(1 0 0 -1 0 792)" d="M117.5427 297.0441C 117.0187 297.0441 116.5997 296.8881 116.3427 296.6941C 116.0797 296.4961 116.0017 296.2991 116.0027 296.1671C 116.0037 296.1511 116.0047 296.1341 116.0067 296.1171L116.0067 296.1171L132.8327 296.1171C 134.7447 296.1271 136.6617 296.1361 138.5877 296.1461C 146.3717 296.1651 154.2837 296.1831 162.4487 296.2021C 170.5987 296.1721 178.1907 296.1441 185.4217 296.1171L185.4217 296.1171L488.9227 296.1171C 488.8827 296.1691 488.8257 296.2251 488.7437 296.2861C 488.5367 296.4381 488.1887 296.5601 487.7897 296.5601L487.7897 296.5601L487.7877 296.5601L487.7877 296.5601L117.5427 297.0441" stroke="none" fill="#E6E6EB" fill-rule="nonzero" /><path id="541" transform="matrix(1 0 0 -1 0 792)" d="M162.4485 296.2025C 154.2835 296.1835 146.3715 296.1645 138.5875 296.1465C 136.6625 296.1365 134.7445 296.1265 132.8325 296.1165L132.8325 296.1165L185.4215 296.1165C 178.1905 296.1435 170.5985 296.1725 162.4485 296.2025" stroke="none" fill="#8C91A6" fill-rule="nonzero" /><path id="542" transform="matrix(1 0 0 -1 0 792)" d="M117.5441 298.5889L117.5431 297.8169L117.5431 297.8169L117.5431 298.5889C 116.7171 298.5889 115.9801 298.3509 115.4191 297.9339C 114.8631 297.5229 114.4601 296.8959 114.4581 296.1669C 114.4561 295.8179 114.5571 295.4649 114.7411 295.1499C 114.8191 295.3359 114.9351 295.5049 115.0841 295.6419C 115.3541 295.8979 115.7201 296.0249 116.1001 296.0249C 116.1251 296.0249 116.1511 296.0249 116.1761 296.0229L116.1761 296.0229L116.9311 296.0279L116.9311 296.0279L118.3661 296.0359L118.3661 296.0359L121.2371 296.0539C 123.1531 296.0649 125.0701 296.0759 126.9921 296.0869C 128.9341 296.0969 130.8801 296.1069 132.8331 296.1169L132.8331 296.1169L116.0071 296.1169C 116.0051 296.1339 116.0041 296.1509 116.0031 296.1669C 116.0021 296.2989 116.0801 296.4959 116.3421 296.6949C 116.6001 296.8879 117.0191 297.0449 117.5431 297.0439L117.5431 297.0439L487.7861 296.5599L487.7861 296.5599L487.7891 296.5599C 488.1881 296.5599 488.5361 296.4379 488.7441 296.2859C 488.8261 296.2259 488.8831 296.1689 488.9221 296.1169L488.9221 296.1169L185.4211 296.1169C 215.5271 296.0049 239.3201 295.9169 270.6041 295.7999C 285.4181 295.9549 304.4191 296.0659 322.5961 296.0659C 327.6171 296.0659 332.5781 296.0569 337.3671 296.0389C 352.6761 295.9809 366.2581 295.8209 378.5461 295.8209C 384.0181 295.8209 389.2351 295.8529 394.2301 295.9389C 397.3311 295.9569 400.0841 295.9649 402.5901 295.9649C 408.5041 295.9649 413.0381 295.9229 417.4881 295.8769C 418.3341 295.8689 419.2871 295.8649 420.3261 295.8649C 427.0641 295.8649 437.4301 296.0239 445.8691 296.0599C 446.8671 296.0689 447.8171 296.0729 448.7331 296.0729C 452.1191 296.0729 455.0271 296.0169 458.0751 295.9619C 461.1211 295.9059 464.3051 295.8509 468.2451 295.8509C 468.8761 295.8509 469.5271 295.8519 470.2001 295.8549C 475.3041 295.8769 482.6871 295.9079 488.7941 295.9339L488.7941 295.9339L489.2961 295.9369L489.2961 295.9369L489.3131 295.9389L489.3131 295.9389L489.3471 295.9439L489.3471 295.9439L489.4111 295.9519L489.4111 295.9519L489.5191 295.9659L489.5191 295.9659L489.6181 295.9779L489.6181 295.9779L489.9561 296.0269C 490.0131 296.0769 490.1111 296.0989 490.2181 296.0989C 490.3311 296.0989 490.4531 296.0739 490.5451 296.0329C 490.5001 296.6749 490.1191 297.2069 489.6441 297.5429C 489.1321 297.9059 488.4871 298.1029 487.7881 298.1049zM490.5491 295.1129C 490.3311 294.9869 489.9961 294.8959 489.6181 294.8349L489.6181 294.8349L489.6181 294.8129L489.6181 294.8129L489.4101 294.7929L489.4101 294.7929L489.3021 294.7849C 488.2301 294.7819 487.1511 294.7799 486.0681 294.7779C 481.3821 294.7699 476.6191 294.7639 471.9271 294.7569C 462.5441 294.7329 453.4531 294.7099 445.8691 294.6909C 442.6911 294.6749 439.7781 294.6679 437.0001 294.6679C 426.5171 294.6679 417.9531 294.7659 404.3411 294.8439C 377.2131 294.7509 355.6361 294.6779 333.6941 294.6029C 329.2801 294.5929 324.8521 294.5819 320.3601 294.5719L320.3601 294.5719L490.5491 294.5719z" stroke="none" fill="#E6E6EB" fill-rule="nonzero" /><path id="543" transform="matrix(1 0 0 -1 0 792)" d="M185.4214 296.1168L132.8324 296.1168C 130.8804 296.1068 128.9344 296.0968 126.9914 296.0868C 125.0704 296.0758 123.1524 296.0648 121.2374 296.0538L121.2374 296.0538L118.3654 296.0358L118.3654 296.0358L116.9314 296.0278L116.9314 296.0278L116.1764 296.0228C 116.1504 296.0248 116.1254 296.0248 116.1004 296.0248C 115.7204 296.0248 115.3544 295.8978 115.0844 295.6418C 114.9354 295.5048 114.8194 295.3358 114.7414 295.1498C 114.8004 295.0488 114.8684 294.9508 114.9434 294.8588L114.9434 294.8588L115.1754 294.5718L115.1754 294.5718L320.3604 294.5718C 324.8524 294.5828 329.2794 294.5928 333.6934 294.6038C 355.6354 294.6788 377.2124 294.7518 404.3414 294.8438C 417.9534 294.7658 426.5174 294.6678 436.9994 294.6678C 439.7784 294.6678 442.6914 294.6748 445.8694 294.6908C 453.4534 294.7098 462.5444 294.7328 471.9274 294.7568C 476.6184 294.7638 481.3824 294.7708 486.0674 294.7778C 487.1504 294.7808 488.2304 294.7828 489.3024 294.7848L489.3024 294.7848L489.4094 294.7928L489.4094 294.7928L489.6184 294.8138L489.6184 294.8138L489.6184 294.8348C 489.9964 294.8958 490.3314 294.9868 490.5494 295.1128L490.5494 295.1128L490.5494 295.9078C 490.5494 295.9498 490.5474 295.9918 490.5444 296.0328C 490.4524 296.0748 490.3304 296.0988 490.2174 296.0988C 490.1114 296.0988 490.0134 296.0768 489.9564 296.0268L489.9564 296.0268L489.6184 295.9778L489.6184 295.9778L489.5194 295.9658L489.5194 295.9658L489.4114 295.9518L489.4114 295.9518L489.3474 295.9438L489.3474 295.9438L489.3134 295.9388L489.3134 295.9388L489.2954 295.9368L489.2954 295.9368L488.7944 295.9338C 482.6874 295.9078 475.3044 295.8768 470.1994 295.8548C 469.5274 295.8518 468.8764 295.8508 468.2454 295.8508C 464.3054 295.8508 461.1204 295.9058 458.0754 295.9618C 455.0274 296.0168 452.1184 296.0728 448.7334 296.0728C 447.8174 296.0728 446.8674 296.0688 445.8694 296.0598C 437.4304 296.0238 427.0634 295.8648 420.3264 295.8648C 419.2864 295.8648 418.3344 295.8688 417.4874 295.8768C 413.0384 295.9228 408.5044 295.9648 402.5894 295.9648C 400.0844 295.9648 397.3314 295.9578 394.2304 295.9388C 389.2344 295.8528 384.0174 295.8218 378.5464 295.8218C 366.2584 295.8218 352.6764 295.9808 337.3674 296.0388C 332.5774 296.0568 327.6174 296.0658 322.5964 296.0658C 304.4194 296.0658 285.4184 295.9548 270.6034 295.8008C 239.3194 295.9168 215.5264 296.0048 185.4214 296.1168" stroke="none" fill="#8C91A6" fill-rule="nonzero" /></g><g clip-path="url(#5)"><path id="562" transform="matrix(1 0 0 -1 0 792)" d="M28.575 771.895C 28.575 771.895 21.285 771.895 21.285 764.605L21.285 764.605L21.285 761.098C 21.285 761.098 21.285 753.808 28.575 753.808L28.575 753.808L53.653 753.808C 53.653 753.808 60.943 753.808 60.943 761.098L60.943 761.098L60.943 764.605C 60.943 764.605 60.943 771.895 53.653 771.895L53.653 771.895L28.575 771.895z" stroke="#969CAD" stroke-width="0.81" fill="none" /></g></g></g></svg>