<svg xmlns="http://www.w3.org/2000/svg" xmlns:xlink="http://www.w3.org/1999/xlink" id="body_3" preserveAspectRatio="xMinYMin meet" viewBox="0 0 816 1056"><defs><clipPath id="1"><path id="" clip-rule="evenodd" transform="matrix(1 0 0 1 0 0)" d="M0 792L0 0L0 0L612 0L612 0L612 792L612 792L0 792z" /></clipPath><clipPath id="2"><path id="" clip-rule="evenodd" transform="matrix(1 0 0 1 0 0)" d="M376.449 497.219L493.766 497.219L493.766 497.219L493.766 637.239L493.766 637.239L376.449 637.239z" /></clipPath><clipPath id="3"><path id="" clip-rule="evenodd" transform="matrix(1 0 0 1 0 0)" d="M50.042 637.345L288.042 637.345L288.042 637.345L288.042 460.425L288.042 460.425L50.042 460.425z" /></clipPath><clipPath id="4"><path id="" clip-rule="evenodd" transform="matrix(1 0 0 1 0 0)" d="M0 792L612 792L612 792L612 0L612 0L0 0z" /></clipPath><clipPath id="5"><path id="" clip-rule="evenodd" transform="matrix(1 0 0 1 0 0)" d="M50.042 637.345L288.042 637.345L288.042 637.345L288.042 460.425L288.042 460.425L50.042 460.425z" /></clipPath><clipPath id="6"><path id="" clip-rule="evenodd" transform="matrix(1 0 0 1 0 0)" d="M0 792L612 792L612 792L612 0L612 0L0 0z" /></clipPath><clipPath id="7"><path id="" clip-rule="evenodd" transform="matrix(1 0 0 1 0 0)" d="M314.858 637.329L553.218 637.329L553.218 637.329L553.218 460.41L553.218 460.41L314.858 460.41z" /></clipPath><clipPath id="8"><path id="" clip-rule="evenodd" transform="matrix(1 0 0 1 0 0)" d="M0 792L612 792L612 792L612 0L612 0L0 0z" /></clipPath><clipPath id="9"><path id="" clip-rule="evenodd" transform="matrix(1 0 0 1 0 0)" d="M314.858 637.329L553.218 637.329L553.218 637.329L553.218 460.41L553.218 460.41L314.858 460.41z" /></clipPath><clipPath id="10"><path id="" clip-rule="evenodd" transform="matrix(1 0 0 1 0 0)" d="M0 792L612 792L612 792L612 0L612 0L0 0z" /></clipPath><clipPath id="11"><path id="" clip-rule="evenodd" transform="matrix(1 0 0 1 0 0)" d="M0 792L612 792L612 792L612 0L612 0L0 0z" /></clipPath><clipPath id="12"><path id="" clip-rule="evenodd" transform="matrix(1 0 0 1 0 0)" d="M266.288 262.08L531.247 262.08L531.247 262.08L531.247 103.963L531.247 103.963L266.288 103.963z" /></clipPath><clipPath id="13"><path id="" clip-rule="evenodd" transform="matrix(1 0 0 1 0 0)" d="M0 792L612 792L612 792L612 0L612 0L0 0z" /></clipPath></defs><g transform="matrix(1.333333 0 0 1.333333 0 0)"><g clip-path="url(#1)"><g clip-path="url(#2)"><g transform="matrix(0.2399113 0 0 0.2399867 376.4486 497.219)"><g transform="matrix(1 0 0 1 0 0)"><image x="0" y="0" xlink:href="img_05.png" width="489" height="588" /></g></g></g><g transform="matrix(0.2395487 0 0 0.2397107 109.8 509.4189)"><g transform="matrix(1 0 0 1 0 0)"><image x="0" y="0" xlink:href="img_06.png" width="489" height="532" /></g></g><g clip-path="url(#3)"><path id="266" transform="matrix(1 0 0 -1 0 792)" d="M236.6522 160.7447C 236.7022 160.8437 236.7662 160.9577 236.8042 161.0657C 236.8402 161.1727 236.8872 161.2617 236.9292 161.3627C 236.9662 161.4527 237.0362 161.5537 236.9962 161.6527C 236.9962 161.6527 236.9942 161.7457 236.9922 161.8437L236.9922 161.8437L237.0502 161.8437C 237.0472 161.8737 237.0102 161.9587 236.9792 162.0417L236.9792 162.0417L236.9682 162.0717L236.9682 162.0717L236.9652 162.0797C 236.9642 162.0867 236.9632 162.0597 236.9632 162.1527L236.9632 162.1527L236.9582 162.5407C 236.9522 163.0517 236.9472 163.5347 236.9422 163.9657C 236.9352 164.8267 236.9342 165.4777 236.9452 165.7257C 237.1762 171.2517 236.9922 179.6897 236.9872 181.3067C 237.0292 187.0277 236.8482 181.8287 236.9452 192.4837C 237.0432 203.1407 237.1252 213.1137 237.1052 216.1047C 237.1252 219.8607 237.0982 224.5857 237.0662 229.2587C 237.0392 233.9347 237.0132 238.5597 236.9922 242.1157C 236.8452 255.7147 236.8282 267.2517 236.8762 279.2677C 236.9142 285.2757 236.9522 291.4037 236.9922 297.9677C 236.9902 299.6167 237.0512 301.2587 236.9982 302.9967C 236.9932 304.7507 236.6222 306.5207 236.0792 308.2587C 235.5432 310.0097 234.6342 311.6687 233.5452 313.2327C 232.4502 314.8007 231.0632 316.2197 229.4422 317.4057C 226.6752 319.4387 222.7072 320.9347 218.3802 320.9457C 214.2022 320.9547 209.7622 320.9637 205.3952 320.9737C 196.6622 320.9987 188.2192 321.0127 182.7442 320.8677C 161.5472 321.1007 143.7492 321.0407 127.2622 321.0047C 125.2012 321.0007 123.1602 320.9977 121.1362 320.9937C 119.1442 320.9877 117.0422 321.0337 115.0052 320.6117C 110.9682 319.7427 107.2512 317.6017 104.6012 314.5087C 101.9352 311.4457 100.2492 307.5217 100.0012 303.4347C 99.91621 302.3977 99.92421 301.4297 99.90921 300.4457C 99.8952 299.4617 99.88121 298.4767 99.86621 297.4897C 99.83121 295.5157 99.7962 293.5337 99.76021 291.5397C 99.7202 284.7927 99.78621 273.7287 99.84421 262.4997C 99.90321 251.2707 99.95421 239.8767 99.8882 232.4687C 99.65421 212.1037 99.71521 190.5027 99.78021 169.3027C 99.8452 148.1037 99.91321 127.3057 99.6922 108.5537C 99.8112 104.5867 99.82921 98.2317 99.81921 91.13271C 99.80521 84.03371 99.79021 76.1927 99.7762 69.25471C 99.80321 60.41971 99.7382 54.4127 99.82021 47.94871C 99.9472 44.60171 100.9802 41.16171 103.2252 37.9307C 104.3362 36.30971 105.8222 34.8007 107.6442 33.4727C 109.4722 32.1557 111.6882 31.0497 114.2702 30.4317C 114.3782 30.38571 114.5972 30.31371 114.9152 30.2187C 115.2412 30.15871 115.6662 30.07971 116.1782 29.9857C 116.6892 29.87271 117.2982 29.84471 117.9832 29.80371C 118.6832 29.74571 119.3912 29.75571 120.1762 29.74771C 123.3082 29.74271 127.3932 29.7357 131.6512 29.7287C 140.1672 29.7417 149.3752 29.75571 153.0272 29.76071C 177.2152 29.8307 196.0912 29.88571 214.6582 29.93971L214.6582 29.93971L218.1372 29.94971C 219.3162 29.97771 220.5452 30.03371 221.7282 30.2637C 224.1072 30.6907 226.4042 31.5907 228.4542 32.8997C 232.5592 35.50371 235.6752 39.79371 236.7342 44.75871C 236.8722 45.3757 236.9362 46.0097 237.0382 46.6377C 237.1082 47.27071 237.1102 47.91171 237.1482 48.5517C 237.1462 49.7907 237.1432 51.0407 237.1412 52.3017C 237.1292 54.8187 237.1172 57.37971 237.1052 59.99471C 237.0782 65.22471 237.0492 70.66971 237.0192 76.40871C 237.1212 90.98071 237.2572 98.71471 237.1772 111.5497C 237.1572 117.9677 237.1332 125.6607 237.1092 133.5997C 237.1012 137.5697 237.0942 141.6007 237.0872 145.5657C 237.0842 146.4827 237.0822 147.3967 237.0802 148.3047L237.0802 148.3047L237.0712 148.4157L237.0712 148.4157L237.0502 148.6317L237.0502 148.6317L237.0282 148.6317C 236.9202 149.2997 236.7222 149.8367 236.4092 149.8637C 236.1472 149.8867 235.9672 149.8737 235.8222 149.6527C 235.7102 149.4837 235.6742 149.1167 235.7942 148.9807C 235.8122 148.8527 235.8272 148.7477 235.8442 148.6317C 235.8442 148.6317 235.8492 148.5927 235.8572 148.5287C 235.8612 148.4977 235.8662 148.4597 235.8722 148.4177L235.8722 148.4177L235.8802 148.3507L235.8802 148.3507L235.8852 148.3157L235.8852 148.3157L235.8872 148.2977L235.8872 148.2977L235.8902 147.8727C 235.9172 142.7047 235.9492 136.4577 235.9722 132.1387C 236.0202 123.5007 235.6742 119.1337 235.7602 111.5497C 235.8032 103.3077 236.0162 92.89171 235.9492 87.53371C 235.8822 82.17371 235.8212 76.66971 235.8852 67.85371C 235.9572 64.42371 235.9922 60.8707 236.0032 57.1797C 236.0032 55.3337 236.0032 53.4537 236.0022 51.53671C 235.9972 50.5787 235.9912 49.6117 235.9862 48.6347C 235.9592 48.16071 235.9322 47.68471 235.9052 47.2057C 235.8822 46.72671 235.7672 46.25571 235.7022 45.7767C 235.0262 41.97971 233.0052 38.2327 229.7872 35.55871C 226.6022 32.8457 222.3262 31.28371 217.7662 31.4257C 199.0432 31.5137 177.2692 31.38271 161.2712 31.17871C 153.0632 31.20671 145.4652 31.23271 138.1292 31.25771C 134.4602 31.2807 130.8572 31.3027 127.2762 31.3257C 125.4852 31.33771 123.7002 31.3497 121.9152 31.36171C 120.1262 31.38071 118.3272 31.3407 116.6432 31.5377C 113.2322 31.9817 109.9382 33.4567 107.3292 35.8167C 106.0042 36.9707 104.8712 38.36471 103.9662 39.90571C 103.0662 41.4447 102.3302 43.1257 101.9632 44.92371C 101.5632 46.73071 101.5072 48.53271 101.5442 50.5537C 101.5512 52.53471 101.5572 54.54871 101.5632 56.60071C 101.5692 60.7037 101.5742 64.9597 101.5802 69.41171C 101.5802 97.04671 101.2122 121.2657 101.1642 148.7927C 101.1762 155.6007 101.2682 160.3037 101.3512 165.2317C 101.4342 170.1597 101.5162 186.9097 101.4952 194.6127C 101.5512 231.6687 101.2472 256.7787 101.2842 289.2087C 101.2932 293.2627 101.3032 297.2497 101.3122 301.1987C 101.1382 305.0947 102.2192 308.8347 104.3152 311.9707C 106.4622 315.0387 109.5372 317.4907 113.1102 318.6537C 114.8862 319.2437 116.7532 319.5647 118.6372 319.5717C 120.6022 319.5617 122.5752 319.5507 124.5592 319.5397C 140.4442 319.4427 157.0682 319.3497 176.2402 319.3497C 188.4902 319.3907 201.4592 319.4347 214.7612 319.4787L214.7612 319.4787L217.2592 319.4857L217.2592 319.4857L218.5092 319.4877L218.5092 319.4877L219.7012 319.4297C 220.1012 319.4267 220.4952 319.3707 220.8882 319.3037C 221.2812 319.2377 221.6802 319.2007 222.0692 319.1117C 222.8402 318.9077 223.6252 318.7437 224.3672 318.4357C 225.1332 318.1947 225.8402 317.8097 226.5672 317.4697C 227.2492 317.0497 227.9732 316.6847 228.5982 316.1747C 229.9182 315.2487 231.0622 314.0857 232.0612 312.8207C 234.0692 310.2807 235.2942 307.1497 235.6222 303.9237C 235.7442 302.3377 235.7012 300.5947 235.7142 298.9057L235.7142 298.9057L235.7232 293.8117C 235.7692 266.6547 235.5512 268.3567 235.5012 244.7417C 235.5172 237.6997 235.5972 203.5317 235.6112 197.7197C 235.5602 191.9077 235.5202 185.8127 235.5572 177.6397C 235.5862 174.2317 235.6162 170.6577 235.6482 166.9887C 235.6602 165.3637 235.6722 163.7187 235.6852 162.0597L235.6852 162.0597L235.7182 161.8437L235.7182 161.8437L235.7392 161.8437C 235.7682 161.7287 235.7932 161.6327 235.7932 161.6327C 235.8142 161.5717 235.8412 161.5247 235.8782 161.4677C 235.9402 161.3597 236.0062 161.2427 236.0702 161.1307C 236.1352 161.0177 236.2512 160.2907 236.5102 160.3707C 236.5122 160.4977 236.5952 160.6307 236.6522 160.7447" stroke="none" fill="#969CAD" fill-rule="nonzero" /></g><g clip-path="url(#4)"><path id="267" transform="matrix(1 0 0 -1 0 792)" d="M168.5962 308.3195C 169.5002 308.3195 170.2742 307.7915 170.6462 307.0305C 170.7942 307.3345 170.8852 307.6705 170.8852 308.0305C 170.8852 309.2965 169.8602 310.3195 168.5962 310.3195C 167.3332 310.3195 166.3072 309.2965 166.3072 308.0305C 166.3072 307.6705 166.3982 307.3345 166.5472 307.0305C 166.9192 307.7915 167.6932 308.3195 168.5962 308.3195" stroke="none" fill="#E6E6EB" fill-rule="nonzero" /></g><g clip-path="url(#5)"><path id="268" transform="matrix(1 0 0 -1 0 792)" d="M170.3962 310.1074C 170.3962 310.1074 169.9622 310.5784 169.2942 310.7824C 168.6372 311.0174 167.8702 310.8824 167.7122 310.8004C 167.4932 310.7504 167.1022 310.5704 166.7882 310.2954C 166.4682 310.0284 166.2402 309.6814 166.1412 309.4984C 165.8422 308.7494 165.7942 308.1344 165.8562 307.4884C 165.9422 306.8564 166.1752 306.1244 166.9272 305.4944C 167.3142 305.3344 167.7662 305.1684 168.2992 305.1244C 168.8242 305.0884 169.4422 305.1924 169.9652 305.5534C 170.9782 305.9164 171.5872 307.0234 171.5462 308.0304L171.5462 308.0304L170.3402 308.0304C 170.3622 307.4414 170.0232 306.8004 169.4342 306.5774C 169.0902 306.3314 168.6022 306.2294 168.1422 306.3394C 167.6832 306.4444 167.2612 306.7664 167.0382 307.1954C 166.8112 307.6204 166.7862 308.1424 166.9452 308.5724C 167.1002 309.0044 167.4342 309.3424 167.8022 309.5164C 168.2582 309.7194 168.5582 309.5744 169.0532 309.5124C 169.2762 309.5024 169.5202 309.4114 169.7352 309.2584C 169.7352 309.2584 169.9192 309.1164 170.0802 308.8704C 170.2442 308.6264 170.3382 308.2744 170.3402 308.0304L170.3402 308.0304L171.5462 308.0304C 171.5312 308.9044 170.8902 309.6184 170.3962 310.1074" stroke="none" fill="#969CAD" fill-rule="nonzero" /><path id="269" transform="matrix(1 0 0 -1 0 792)" d="M227.6305 74.4927C 227.8615 76.7077 227.6785 80.0907 227.6725 80.7397C 227.7155 83.0327 227.5335 80.9487 227.6315 85.2207C 227.7285 89.4917 227.8105 93.4907 227.7915 94.6897C 227.8105 96.19569 227.7845 98.0897 227.7525 99.9637C 227.7255 101.8387 227.6985 103.6937 227.6785 105.1187C 227.5315 110.5707 227.5135 115.1967 227.5625 120.0137C 227.6115 124.8317 227.7265 129.8407 227.8475 136.0587C 227.7485 138.7227 227.7855 142.3407 227.8105 145.8417C 227.8355 149.3437 227.8495 152.7287 227.7045 154.9247C 227.9365 163.4227 227.8775 170.5587 227.8415 177.1677C 227.8055 183.7767 227.7935 189.8627 228.1185 196.2587C 228.1575 198.9637 228.0925 203.3977 228.0335 207.9017C 227.9755 212.4037 227.9235 216.9717 227.9895 219.9417C 228.2245 228.1057 228.1625 236.7657 228.0975 245.2667C 228.0335 253.7647 227.9655 262.1027 228.1865 269.6217C 228.0665 271.2117 228.0485 273.7597 228.0595 276.6057C 228.0675 278.0357 228.0765 279.5397 228.0855 281.0367C 228.0825 281.7497 227.6315 282.4307 226.9865 282.7237C 226.8265 282.7977 226.6565 282.8507 226.4815 282.8777C 226.3955 282.8927 226.3075 282.8977 226.2195 282.9017L226.2195 282.9017L226.0655 282.9027L226.0655 282.9027L225.5155 282.9057C 224.7855 282.9067 224.0665 282.9067 223.3715 282.9077C 219.8365 282.9057 217.4075 282.9047 214.8455 282.9027C 212.2835 282.8987 209.5885 282.8817 205.5245 282.8227C 205.1685 282.9597 202.0315 282.9797 198.6185 282.9707C 195.2025 282.9577 191.5115 282.9437 190.0475 282.9377C 180.3495 282.8677 172.7815 282.8137 165.3375 282.7597C 157.8945 282.6827 150.5735 282.6067 141.3715 282.5107C 135.5285 282.6127 132.4265 282.7487 127.2815 282.6697C 124.7085 282.6497 121.6245 282.6257 118.4415 282.6007C 116.8505 282.5937 115.2345 282.5867 113.6445 282.5787C 112.8505 282.5737 112.0625 282.5687 111.2875 282.5637L111.2875 282.5637L110.9925 282.5607C 110.8415 282.5577 110.6915 282.5337 110.5475 282.4897C 110.2595 282.3997 110.0025 282.2267 109.8125 281.9977C 109.6235 281.7697 109.5005 281.4897 109.4655 281.1987C 109.4535 281.1287 109.4545 281.0487 109.4515 280.9847L109.4515 280.9847L109.4535 280.8447L109.4535 280.8447L109.4565 280.5657L109.4565 280.5657L109.5625 280.5657C 109.3305 278.3497 109.5145 274.9667 109.5195 274.3187C 109.4775 272.0247 109.6585 274.1097 109.5615 269.8377C 109.4635 265.5657 109.3815 261.5677 109.4015 260.3687C 109.3815 258.8627 109.4085 256.9687 109.4405 255.0947C 109.4675 253.2197 109.4945 251.3647 109.5145 249.9387C 109.6615 244.4877 109.6795 239.8617 109.6305 235.0437C 109.5815 230.2267 109.4655 225.2177 109.3455 218.9987C 109.4445 216.3357 109.4075 212.7177 109.3825 209.2157C 109.3565 205.7147 109.3435 202.3297 109.4875 200.1337C 109.2555 191.6357 109.3145 184.4997 109.3505 177.8907C 109.3865 171.2797 109.3995 165.1957 109.0745 158.7987C 109.0355 156.0937 109.1005 151.6577 109.1585 147.1567C 109.2175 142.6547 109.2685 138.0867 109.2025 135.1167C 108.9685 126.9527 109.0305 118.2917 109.0945 109.7917C 109.1595 101.2937 109.2275 92.9557 109.0065 85.4367C 109.1255 83.84669 109.1435 81.2987 109.1335 78.4527C 109.1245 77.0297 109.1145 75.5317 109.1055 74.0427L109.1055 74.0427L109.0985 72.9277L109.0985 72.9277L109.0955 72.37469L109.0955 72.37469L109.0945 72.0987C 109.0925 71.9797 109.1065 71.7647 109.1505 71.6067C 109.3125 70.9207 109.8775 70.3667 110.5485 70.2087C 110.7035 70.1657 110.9095 70.1517 111.0325 70.1517L111.0325 70.1517L111.2975 70.1517L111.2975 70.1517L111.8235 70.15269C 115.3585 70.1547 117.7875 70.1567 120.3495 70.1577C 122.9115 70.1617 125.6065 70.1787 129.6715 70.2377C 130.0265 70.1007 133.1635 70.0807 136.5785 70.0907C 139.9925 70.1037 143.6835 70.1167 145.1485 70.1227C 154.8455 70.1927 162.4135 70.2467 169.8575 70.3007C 177.3015 70.3787 184.6215 70.4547 193.8235 70.5497C 199.6665 70.4487 202.7685 70.3127 207.9135 70.3917C 213.0585 70.4277 220.2495 70.4767 226.1865 70.5187L226.1865 70.5187L226.1865 71.8507C 222.7215 71.7627 219.6305 71.6847 216.1685 71.59669C 212.7045 71.5487 210.9535 71.8947 207.9135 71.8087C 204.6095 71.7657 200.4335 71.5527 198.2845 71.6197C 196.1355 71.6867 193.9285 71.7477 190.3935 71.6837C 184.8935 71.3947 178.6105 71.6997 171.1035 71.7877C 163.5965 71.87469 154.8665 71.7447 148.4525 71.5397C 135.2905 71.5737 126.0385 71.9567 111.7605 71.9567L111.7605 71.9567L111.2425 71.9567L111.2425 71.9567L111.0035 71.9567L111.0035 71.9567L110.9755 71.9607C 110.9385 71.9697 110.9045 72.0017 110.8955 72.0377C 110.8895 72.6427 110.8845 73.2427 110.8785 73.8387C 110.8645 75.1867 110.8505 76.5177 110.8365 77.8387C 110.7915 80.4787 110.7485 83.0767 110.7045 85.6727C 110.6065 90.8647 110.5025 96.0507 110.4785 101.5687C 110.4905 104.2977 110.5825 106.1837 110.6655 108.1607C 110.7485 110.1357 110.8305 116.8507 110.8095 119.9387C 110.8655 134.7957 110.5615 144.8627 110.5985 157.8647C 110.6355 170.8667 111.0065 182.1537 111.0065 197.5267C 110.9375 207.3497 110.8595 218.3257 110.7835 229.2137C 110.7375 240.1017 110.9555 239.4187 111.0065 248.8867C 111.0115 251.7097 110.8445 265.4087 110.8955 267.7377C 110.9465 270.0697 110.9865 272.5137 110.9495 275.7897C 110.9205 277.1567 110.8905 278.5887 110.8585 280.0597C 110.8535 280.3787 110.8485 280.6997 110.8435 281.0217C 110.8475 281.0837 110.8915 281.1457 110.9575 281.1687C 110.9765 281.1777 110.9825 281.1757 111.0175 281.1807L111.0175 281.1807L111.2995 281.1857L111.2995 281.1857L111.8665 281.1937L111.8665 281.1937L113.0035 281.2097L113.0035 281.2097L113.0035 281.3107C 114.9785 281.3717 116.9445 281.4347 119.0275 281.4637C 122.4905 281.5117 124.2415 281.1657 127.2815 281.2527C 130.5865 281.2947 134.7625 281.5077 136.9115 281.4407C 139.0605 281.3737 141.2665 281.3127 144.8015 281.3767C 150.3015 281.6667 156.5855 281.3607 164.0915 281.2737C 171.5985 281.1857 180.3285 281.3167 186.7425 281.5207C 199.9055 281.4877 209.1565 281.1047 223.4345 281.1047C 224.1265 281.1057 224.8145 281.1067 225.4965 281.1087C 226.4375 281.1177 226.2235 281.1167 226.3095 281.0207C 226.3255 279.7397 226.3415 278.4747 226.3565 277.2187C 226.4005 274.5787 226.4445 271.9807 226.4885 269.3847C 226.5865 264.1937 226.6905 259.0077 226.7145 253.4897C 226.7015 250.7597 226.6105 248.8737 226.5275 246.8977C 226.4435 244.9227 226.3625 238.2077 226.3835 235.1187C 226.3265 220.2627 226.6315 210.1957 226.5945 197.1937C 226.5575 184.1917 226.1865 172.9037 226.1865 157.5317C 226.2555 147.7087 226.3325 136.7317 226.4085 125.8437C 226.4555 114.9557 226.2365 115.6397 226.1865 106.1717C 226.1815 103.3487 226.3475 89.6487 226.2965 87.3207C 226.2455 84.9887 226.2055 82.5447 226.2425 79.2687C 226.2715 77.9017 226.3025 76.4687 226.3335 74.9977C 226.3455 74.2627 226.3585 73.5177 226.3705 72.7667L226.3705 72.7667L226.3795 72.2017L226.3795 72.2017L226.3805 72.0387C 226.3805 72.0207 226.3745 72.0017 226.3685 71.9847C 226.3415 71.9117 226.2705 71.8557 226.1865 71.8507L226.1865 71.8507L226.1865 70.5187C 226.4115 70.5157 226.9265 70.5987 227.3075 71.0367C 227.4955 71.2487 227.6375 71.5387 227.6725 71.8557C 227.6915 72.0337 227.6785 72.1497 227.6765 72.2487L227.6765 72.2487L227.6645 72.5757C 227.6345 73.4477 227.6095 74.2927 227.6305 74.4927" stroke="none" fill="#969CAD" fill-rule="nonzero" /></g><g clip-path="url(#6)"><path id="270" transform="matrix(1 0 0 -1 0 792)" d="M286.0737 154.3598C 285.5237 154.3888 284.8927 154.4228 284.2907 154.4558C 283.6967 154.4838 283.2007 154.5078 282.6397 154.5348C 282.1407 154.5578 281.5837 154.6018 281.0337 154.5788C 281.0337 154.5788 279.8147 154.5768 279.1317 154.5758C 276.7177 154.6458 269.5637 154.9388 268.3007 154.9128C 266.7167 154.9458 264.3127 154.8448 262.8087 154.8428C 257.0727 154.6378 253.0727 154.8138 246.5277 155.0108C 243.7197 154.8698 238.9107 155.1398 236.5987 154.9298C 227.6527 155.2998 221.5757 154.7888 214.8437 155.2948C 211.9957 155.3608 205.5047 155.1238 202.3787 155.2308C 193.7857 155.6118 184.1457 155.0838 176.2317 155.4098C 174.5577 155.2298 170.8667 155.3558 167.9357 155.3468C 164.2177 155.3328 162.8237 155.3718 158.5417 155.2828C 158.1707 155.4888 151.9397 155.3428 150.3997 155.3678C 140.1917 155.2438 134.4667 155.2448 124.7797 155.0488C 118.8247 155.1958 105.4647 155.0768 105.1417 154.5698C 105.0167 154.3738 105.0867 154.2388 106.3127 154.1298C 107.2517 154.0458 109.2887 154.0188 110.0437 154.1088C 113.2547 154.1668 115.6797 154.2058 118.4617 154.3188C 121.9367 154.3828 122.8607 154.1018 126.5847 154.1988C 132.3747 154.6328 141.9077 154.0008 148.6587 154.3068C 162.5147 154.2568 173.1037 154.2328 184.7207 154.3068C 187.5947 154.2858 188.6907 154.0358 191.9417 154.0578C 207.5797 153.9628 219.0427 153.8928 235.2237 153.7938C 245.5637 153.9098 258.3327 153.9828 268.2987 153.8818C 271.2667 153.8658 272.9657 153.6848 276.4147 153.7318C 277.8537 153.7698 281.1047 153.8558 281.1417 153.8568C 281.4787 153.8748 281.7427 153.8888 282.0587 153.9058C 282.6607 153.9408 283.3067 153.9798 283.9307 154.0168C 284.5537 154.0538 288.5947 154.1128 288.1467 154.2688C 287.4427 154.2728 286.7047 154.3238 286.0737 154.3598" stroke="none" fill="#969CAD" fill-rule="nonzero" /><path id="271" transform="matrix(1 0 0 -1 0 792)" d="M50.2845 154.4686C 50.4425 154.4396 50.6235 154.4036 50.7955 154.3826C 50.9665 154.3576 51.1085 154.3356 51.2695 154.3116C 51.4125 154.2916 51.5725 154.2506 51.7295 154.2766C 51.7295 154.2766 52.0785 154.2856 52.2735 154.2906C 52.9655 154.2326 55.0165 153.9786 55.3775 154.0116C 55.8315 153.9876 56.5185 154.1016 56.9485 154.1116C 58.5885 154.3476 59.7355 154.1926 61.6105 154.0306C 62.4125 154.1876 63.7915 153.9426 64.4515 154.1666C 67.0145 153.8446 68.7505 154.3876 70.6815 153.9186C 71.4965 153.8676 73.3525 154.1406 74.2485 154.0496C 76.7095 153.7126 79.4665 154.2376 81.7335 153.9096C 82.2125 154.0896 83.2695 153.9626 84.10851 153.9726C 85.1725 153.9866 85.5715 153.9476 86.7965 154.0366C 86.9035 153.8306 88.6865 153.9766 89.1275 153.9506C 92.0495 154.0756 93.6885 154.0736 96.4615 154.2706C 98.1665 154.1226 101.9905 154.2416 102.0825 154.7496C 102.1185 154.9446 102.0985 155.0806 101.7475 155.1896C 101.4785 155.2726 100.8955 155.2996 100.6795 155.2096C 99.7605 155.1516 99.0655 155.1126 98.2695 154.9996C 97.27451 154.9356 97.0095 155.2166 95.9435 155.1206C 94.2865 154.6856 91.5555 155.3186 89.6235 155.0126C 85.6565 155.0626 82.6245 155.0856 79.2985 155.0126C 78.4755 155.0306 78.1605 155.2886 77.2305 155.2566C 72.7525 155.3416 69.4695 155.3446 64.8365 155.3086C 61.8775 155.1376 58.2225 154.9956 55.3685 155.0426C 54.5185 155.0426 54.0305 155.2136 53.0435 155.1486C 52.6315 155.1026 51.7015 154.9996 51.6915 154.9976C 51.5945 154.9836 51.5195 154.9666 51.4295 154.9446C 51.2575 154.9056 51.0725 154.8636 50.8945 154.8236C 50.7165 154.7836 49.5605 154.7016 49.6905 154.5476C 49.8915 154.5486 50.1035 154.5006 50.2845 154.4686" stroke="none" fill="#969CAD" fill-rule="nonzero" /><path id="272" transform="matrix(1 0 0 -1 0 792)" d="M158.8313 295.8175L178.3613 295.8175C 179.2403 295.8175 179.9983 295.3025 180.3693 294.5645C 180.5213 294.8675 180.6143 295.2035 180.6143 295.5645C 180.6143 296.8035 179.6003 297.8175 178.3613 297.8175L178.3613 297.8175L158.8313 297.8175C 157.5913 297.8175 156.5783 296.8035 156.5783 295.5645C 156.5783 295.2035 156.6713 294.8675 156.8233 294.5645C 157.1943 295.3025 157.9523 295.8175 158.8313 295.8175" stroke="none" fill="#E6E6EB" fill-rule="nonzero" /><path id="273" transform="matrix(1 0 0 -1 0 792)" d="M178.1781 298.2785C 178.1781 298.2785 170.5531 298.4685 169.5131 298.4365C 168.2061 298.4685 164.6271 298.3965 163.3871 298.3915C 161.8461 298.3165 160.5081 298.2895 159.2131 298.2925C 158.9181 298.2945 158.5131 298.3105 158.1301 298.2065C 157.7511 298.1105 157.3931 297.9345 157.0831 297.6905C 156.4671 297.2025 156.0411 296.4265 156.0151 295.5645L156.0151 295.5645L157.1401 295.5635L157.1401 295.5635L156.0151 295.5635C 155.9841 294.6915 156.3991 293.7225 157.2521 293.1305C 157.6741 292.8355 158.2021 292.6395 158.7701 292.6125C 159.2071 292.5965 159.6611 292.5785 160.1361 292.5605C 162.4461 292.7195 165.5901 292.6405 169.3361 292.7665C 172.4411 292.6125 175.4471 292.6285 178.3611 292.6495L178.3611 292.6495L178.3611 293.8545C 175.4771 293.8405 172.5381 293.8295 169.4841 293.9185C 167.2521 293.8935 164.9081 293.8685 162.5211 293.8425C 161.3281 293.8385 160.1231 293.8345 158.9161 293.8305C 157.9341 293.7725 157.0771 294.6195 157.0991 295.5635L157.0991 295.5635L157.0991 295.5645C 157.0861 296.4245 157.8121 297.2065 158.6491 297.2735C 159.6261 297.2885 160.7881 297.2675 161.8271 297.2645C 163.9541 297.2465 166.0171 297.2295 167.9711 297.2135C 170.4171 297.2055 171.8171 297.0205 174.6581 297.0785C 175.8311 297.1315 177.1711 297.1765 178.4351 297.2005C 178.4351 297.2005 178.6481 297.2245 179.0351 297.0665C 179.3971 296.9165 180.0041 296.4465 180.0311 295.5645L180.0311 295.5645L180.0311 295.5635C 180.0421 295.3565 179.9911 294.8965 179.6731 294.4975C 179.3641 294.0955 178.8141 293.8435 178.3611 293.8545L178.3611 293.8545L178.3611 292.6495C 179.1071 292.6505 179.8601 292.9765 180.3751 293.5255C 180.8991 294.0665 181.1821 294.8285 181.1511 295.5635L181.1511 295.5635L180.0791 295.5635L180.0791 295.5635L181.1511 295.5645C 181.1241 296.3645 180.7321 297.1125 180.1591 297.5935C 179.6061 298.0895 178.8031 298.3025 178.1781 298.2785" stroke="none" fill="#969CAD" fill-rule="nonzero" /></g><g clip-path="url(#7)"><path id="274" transform="matrix(1 0 0 -1 0 792)" d="M492.2244 59.4124C 493.5934 59.6364 495.2314 60.9614 495.4894 61.2354C 496.0544 61.6334 496.0244 61.7174 496.1464 61.8484C 496.2584 61.9934 496.5084 62.2004 497.3884 63.1274C 499.1484 65.0154 500.0104 67.3654 500.1534 68.0704C 500.4364 68.9404 500.5374 70.1244 500.5184 71.2414C 500.4854 72.3264 500.4474 73.3984 500.4434 74.2234C 500.2974 77.3764 500.2794 80.0514 500.3284 82.8384C 500.3774 85.6244 500.4924 88.5214 500.6134 92.1184C 500.5134 93.6584 500.5504 95.7514 500.5764 97.7764C 500.6014 99.8014 500.6154 101.7594 500.4704 103.0294C 500.7024 107.9444 500.6434 112.0714 500.6074 115.8944C 500.5714 119.7164 500.5584 123.2364 500.8844 126.9364C 500.9234 128.5004 500.8584 131.0654 500.7994 133.6694C 500.7414 136.2734 500.6894 138.9154 500.7554 140.6334C 500.9894 145.3554 500.9284 150.3644 500.8634 155.2804C 500.7994 160.1954 500.7314 165.0184 500.9524 169.3674C 500.8324 170.2864 500.8144 171.7604 500.8254 173.4064C 500.8384 175.0524 500.8544 176.8714 500.8674 178.4794C 500.8654 180.5244 500.8644 181.9294 500.8624 183.4114C 500.8584 184.8934 500.8414 186.4514 500.7824 188.8024C 500.9194 189.0074 500.9394 190.8224 500.9294 192.7964C 500.9204 194.7714 500.8804 196.9064 500.8974 197.7534C 500.8274 203.3624 500.7734 207.7394 500.7194 212.0444C 500.6664 216.3504 500.6014 220.5844 500.4704 225.9064C 500.5724 229.2854 500.7084 231.0794 500.6284 234.0554C 500.5494 237.0314 500.5684 241.1904 500.5024 244.6244L500.5024 244.6244L500.3964 244.6244C 500.6274 245.9054 500.4434 247.8614 500.4384 248.2364C 500.4804 249.5634 500.2994 248.3574 500.3964 250.8284C 500.4944 253.2994 500.5764 255.6114 500.5564 256.3054C 500.5764 257.1764 500.5504 258.2724 500.5184 259.3554C 500.4854 260.4404 500.4474 261.5124 500.4434 262.3374C 500.2974 265.4904 500.2794 268.1664 500.3284 270.9524C 500.3774 273.7384 500.4924 276.6354 500.6134 280.2324C 500.5134 281.7724 500.5504 283.8654 500.5764 285.8904C 500.6014 287.9154 500.6154 289.8734 500.4704 291.1434C 500.7024 296.0584 500.6434 300.1854 500.6074 304.0084C 500.6544 305.9854 500.1854 307.9544 499.3974 309.6854C 498.6024 311.4314 497.4754 312.9954 496.0784 314.4134C 495.4324 314.9464 494.5414 315.6294 493.3934 316.1504C 492.2724 316.6844 490.8564 317.0654 489.5244 317.2074C 486.9294 317.5024 484.3014 317.8234 482.6034 318.1084C 480.2674 318.4984 477.8524 318.8484 475.4044 319.1194C 472.9534 319.3624 470.4774 319.6104 468.0194 319.7834C 463.1044 320.1474 458.2814 320.4084 453.9394 320.8534C 453.0124 320.7764 451.5364 320.8254 449.8884 320.9114C 448.2414 321.0114 446.4194 321.0794 444.8074 321.1224C 442.7584 321.1654 441.3514 321.2284 439.8654 321.2254C 438.3804 321.2354 436.8174 321.2324 434.4614 321.1944C 434.2554 321.3344 432.4364 321.3354 430.4564 321.3084C 428.4764 321.2894 426.3374 321.2134 425.4894 321.1964C 419.8704 320.9804 415.4894 320.7344 411.1874 320.4174C 406.8844 320.1054 402.6574 319.7224 397.3654 319.0774C 393.9894 318.8454 392.1834 318.8034 389.2344 318.3564C 386.2804 317.9544 382.1534 317.3864 378.7554 316.8524C 378.5744 316.8064 378.0384 316.6824 377.5374 316.5204C 377.0424 316.3424 376.5634 316.1704 376.4504 316.1294C 375.0814 315.9064 373.4434 314.5814 373.1854 314.3074C 372.6204 313.9084 372.6504 313.8244 372.5274 313.6944C 372.4164 313.5494 372.1664 313.3424 371.2864 312.4144C 369.5264 310.5264 368.6644 308.1774 368.5204 307.4724C 368.2384 306.6014 368.1374 305.4174 368.1564 304.3004C 368.1884 303.2164 368.2264 302.1434 368.2304 301.3194C 368.3774 298.1654 368.3954 295.4904 368.3464 292.7044C 368.2974 289.9184 368.1814 287.0204 368.0614 283.4244C 368.1604 281.8834 368.1234 279.7914 368.0984 277.7654C 368.0734 275.7404 368.0594 273.7834 368.2044 272.5134C 367.9724 267.5974 368.0314 263.4704 368.0674 259.6484C 368.1024 255.8254 368.1154 252.3054 367.7904 248.6064C 367.7514 247.0414 367.8164 244.4774 367.8754 241.8724C 367.9334 239.2684 367.9854 236.6264 367.9184 234.9084C 367.6844 230.1874 367.7464 225.1784 367.8114 220.2614C 367.8754 215.3464 367.9434 210.5244 367.7224 206.1754C 367.8424 205.2554 367.8604 203.7824 367.8494 202.1364C 367.8354 200.4894 367.8204 198.6714 367.8074 197.0624C 367.8094 195.0184 367.8104 193.6124 367.8124 192.1314C 367.8164 190.6494 367.8334 189.0904 367.8924 186.7404C 367.7554 186.5344 367.7344 184.7194 367.7444 182.7464C 367.7544 180.7704 367.7944 178.6354 367.7764 177.7884C 367.8464 172.1794 367.9014 167.8024 367.9554 163.4974C 368.0084 159.1924 368.0734 154.9584 368.2044 149.6354C 368.1024 146.2564 367.9664 144.4624 368.0454 141.4864C 368.1254 138.5104 368.1064 134.3514 368.1724 130.9184L368.1724 130.9184L368.2784 130.9184C 368.0474 129.6374 368.2304 127.6804 368.2364 127.3054C 368.1934 125.9784 368.3754 127.1844 368.2774 124.7134C 368.1804 122.2434 368.0984 119.9304 368.1174 119.2374C 368.0984 118.3664 368.1244 117.2704 368.1564 116.1864C 368.1884 115.1024 368.2264 114.0294 368.2304 113.2044C 368.3774 110.0514 368.3954 107.3764 368.3464 104.5904C 368.2974 101.8034 368.1814 98.9064 368.0614 95.3094C 368.1604 93.76939 368.1234 91.6764 368.0984 89.6514C 368.0734 87.6264 368.0594 85.6684 368.2044 84.3984C 367.9724 79.4834 368.0314 75.3564 368.0674 71.5344C 368.0204 69.5574 368.4894 67.5874 369.2774 65.8574C 370.0724 64.1114 371.1994 62.5474 372.5964 61.1294C 373.2424 60.5964 374.1334 59.9134 375.2814 59.3924C 376.4024 58.8574 377.8184 58.4764 379.1504 58.3344C 381.7454 58.0394 384.3724 57.7184 386.0714 57.4334C 388.4064 57.0434 390.8224 56.6934 393.2704 56.4224C 395.7214 56.1794 398.1974 55.9314 400.6554 55.7594C 405.5704 55.3944 410.3934 55.1334 414.7354 54.6884C 415.6624 54.7654 417.1384 54.7164 418.7864 54.6304C 420.4334 54.5304 422.2554 54.4624 423.8674 54.4194C 425.9164 54.3764 427.3234 54.3134 428.8094 54.3164C 430.2944 54.3064 431.8574 54.3094 434.2134 54.3474C 434.4194 54.2074 436.2384 54.2064 438.2184 54.2334C 440.1984 54.2524 442.3374 54.3284 443.1854 54.3454C 448.8044 54.5614 453.1854 54.8074 457.4874 55.1244C 461.7904 55.4364 466.0164 55.8194 471.3094 56.4644C 474.6854 56.6964 476.4904 56.7384 479.4404 57.1854C 482.3944 57.5874 486.5214 58.1554 489.9184 58.6894L489.9184 58.6894L489.7244 60.0074C 487.7504 59.6874 486.0044 59.2874 484.0294 58.9674C 482.0544 58.6394 481.0034 58.8944 479.2734 58.5924C 477.3854 58.3164 475.0124 57.8304 473.7684 57.7864C 472.5264 57.7284 471.2534 57.6624 469.2284 57.3944C 466.0884 56.8494 462.4464 56.8124 458.1154 56.6534C 455.9524 56.5334 453.6124 56.4024 451.3514 56.2764C 449.0914 56.1104 446.9094 55.9504 445.0614 55.8144C 437.4574 55.6384 432.1134 56.0124 423.8804 56.2234C 417.4914 56.3824 411.8754 56.3384 405.5114 56.7474C 403.9404 56.8894 402.8624 57.0704 401.7324 57.2464C 400.6004 57.3994 396.7524 57.8724 394.9774 58.0324C 392.8464 58.2664 390.8874 58.4814 389.0304 58.6854C 387.1734 58.8824 385.4164 59.0584 383.6984 59.2754C 381.9904 59.4874 380.2674 59.6604 378.5944 59.9114C 376.9874 60.1904 375.3894 60.8684 373.9834 61.9814C 371.1604 64.1804 369.5124 67.5194 369.5384 70.9164C 369.6234 74.5804 369.7254 78.4494 369.7224 82.8904C 369.6534 88.5724 369.5764 94.92039 369.4994 101.2184C 369.4534 107.5154 369.6714 107.1204 369.7224 112.5964C 369.7274 114.2294 369.5614 122.1524 369.6124 123.4994C 369.6624 124.8474 369.7034 126.2614 369.6664 128.1564C 369.6374 128.9464 369.6064 129.7754 369.5754 130.6264C 369.5524 131.4764 369.5284 132.3494 369.5054 133.2284L369.5054 133.2284L369.4034 133.2284C 369.3434 134.3704 369.2804 135.5074 369.2514 136.7124C 369.2024 138.7154 369.5484 139.7284 369.4624 141.4864C 369.4204 143.3984 369.2074 145.8134 369.2744 147.0564C 369.3404 148.2994 369.4024 149.5754 369.3384 151.6194C 369.0484 154.8014 369.3544 158.4354 369.4414 162.7764C 369.5294 167.1184 369.3984 172.1674 369.1944 175.8774C 369.2274 183.4904 369.6104 188.8404 369.6104 197.0984C 369.6104 203.5084 369.2434 209.1224 369.1944 215.5054C 369.2074 217.0844 369.2984 218.1754 369.3814 219.3184C 369.4654 220.4604 369.5464 224.3444 369.5254 226.1304C 369.5824 234.7234 369.2774 240.5454 369.3144 248.0654C 369.3514 255.5854 369.7224 262.1144 369.7224 271.0054C 369.6534 276.6864 369.5764 283.0354 369.4994 289.3324C 369.4534 295.6294 369.6714 295.2344 369.7224 300.7104C 369.7184 301.1184 369.7104 301.9194 369.7004 302.9134C 369.6934 303.4094 369.6854 303.9544 369.6774 304.5214C 369.6924 305.0374 369.7014 305.5764 369.7934 306.1094C 370.0904 308.2644 371.2234 310.1854 371.6254 310.6544C 372.3934 311.6444 373.2834 312.6294 374.7024 313.6544C 375.2904 314.0834 375.9374 314.5084 376.6624 314.8144C 377.3734 315.1584 378.1564 315.3634 378.9504 315.5344C 380.9244 315.8544 382.6704 316.2544 384.6454 316.5744C 386.6204 316.9024 387.6714 316.6474 389.4014 316.9494C 391.2894 317.2264 393.6624 317.7114 394.9064 317.7554C 396.1484 317.8134 397.4214 317.8794 399.4464 318.1474C 402.5864 318.6924 406.2284 318.7294 410.5594 318.8884C 412.7224 319.0084 415.0624 319.1394 417.3234 319.2654C 419.5834 319.4314 421.7654 319.5914 423.6134 319.7274C 431.2174 319.9034 436.5614 319.5294 444.7944 319.3184C 451.1834 319.1594 456.7994 319.2034 463.1634 318.7944C 464.7344 318.6524 465.8124 318.4714 466.9424 318.2954C 468.0744 318.1424 471.9224 317.6694 473.6974 317.5094C 475.8284 317.2754 477.7874 317.0604 479.6444 316.8564C 481.5014 316.6594 483.2584 316.4834 484.9764 316.2664C 486.6844 316.0544 488.4064 315.8814 490.0804 315.6304C 491.6874 315.3514 493.2854 314.6734 494.6914 313.5604C 497.5144 311.3614 499.1614 308.0234 499.1364 304.6254C 499.0514 300.9614 498.9494 297.0924 498.9524 292.6514C 499.0214 286.9704 499.0984 280.6214 499.1744 274.3244C 499.2204 268.0264 499.0024 268.4224 498.9524 262.9464C 498.9464 261.3134 499.1134 253.3904 499.0624 252.0434C 499.0114 250.6944 498.9714 249.2814 499.0084 247.3864C 499.0374 246.5954 499.0684 245.7674 499.0994 244.9164C 499.1224 244.0654 499.1464 243.1924 499.1694 242.3134L499.1694 242.3134L499.2704 242.3134C 499.3314 241.1714 499.3944 240.0344 499.4234 238.8294C 499.4714 236.8264 499.1254 235.8134 499.2114 234.0554C 499.2544 232.1444 499.4674 229.7294 499.4004 228.4864C 499.3334 227.2434 499.2724 225.9674 499.3364 223.9224C 499.6254 220.7414 499.3204 217.1074 499.2334 212.7654C 499.1454 208.4234 499.2764 203.3744 499.4804 199.6654C 499.4464 192.0524 499.0634 186.7014 499.0634 178.4434C 499.0634 172.0344 499.4314 166.4194 499.4804 160.0364C 499.4674 158.4574 499.3764 157.3674 499.2924 156.2244C 499.2094 155.0824 499.1284 151.1984 499.1494 149.4114C 499.0924 140.8194 499.3964 134.9964 499.3594 127.4764C 499.3234 119.9564 498.9524 113.4284 498.9524 104.5374C 499.0214 98.8554 499.0984 92.5074 499.1744 86.2104C 499.2204 79.9124 499.0024 80.3074 498.9524 74.8324C 498.9564 74.4234 498.9644 73.6224 498.9744 72.6294C 498.9814 72.1324 498.9894 71.5884 498.9974 71.0204C 498.9824 70.5044 498.9724 69.9664 498.8804 69.4334C 498.5844 67.2774 497.4514 65.3574 497.0494 64.8874C 496.2814 63.8984 495.3904 62.9124 493.9724 61.8884C 493.3844 61.4594 492.7364 61.0344 492.0124 60.7284C 491.3014 60.3844 490.5174 60.1784 489.7224 60.0074L489.7224 60.0074L489.9194 58.6894C 490.1004 58.7354 490.6364 58.8594 491.1364 59.0224C 491.6314 59.1994 492.1104 59.3714 492.2244 59.4124" stroke="none" fill="#969CAD" fill-rule="nonzero" /></g><g clip-path="url(#8)"><path id="275" transform="matrix(1 0 0 -1 0 792)" d="M434.8418 307.6078C 435.7038 307.6078 436.4428 307.1108 436.8088 306.3918C 436.9628 306.6938 437.0578 307.0298 437.0578 307.3918C 437.0578 308.6158 436.0658 309.6078 434.8418 309.6078C 433.6178 309.6078 432.6258 308.6158 432.6258 307.3918C 432.6258 307.0298 432.7208 306.6938 432.8748 306.3918C 433.2408 307.1108 433.9798 307.6078 434.8418 307.6078" stroke="none" fill="#E6E6EB" fill-rule="nonzero" /></g><g clip-path="url(#9)"><path id="276" transform="matrix(1 0 0 -1 0 792)" d="M436.5935 309.4138C 436.5935 309.4138 436.1715 309.8738 435.5215 310.0728C 434.8815 310.3038 434.1335 310.1728 433.9785 310.0928C 433.7655 310.0438 433.3835 309.8668 433.0785 309.5988C 432.7655 309.3378 432.5445 308.9998 432.4485 308.8208C 432.1595 308.0898 432.1145 307.4918 432.1735 306.8618C 432.2565 306.2458 432.4805 305.5318 433.2125 304.9148C 433.5925 304.7598 434.0325 304.5978 434.5525 304.5558C 435.0655 304.5208 435.6685 304.6228 436.1775 304.9778C 437.1645 305.3298 437.7595 306.4098 437.7185 307.3918L437.7185 307.3918L436.5135 307.3918C 436.5355 306.8278 436.2085 306.2108 435.6425 305.9998C 435.3155 305.7628 434.8485 305.6638 434.4075 305.7688C 433.9675 305.8688 433.5625 306.1778 433.3485 306.5898C 433.1305 306.9978 433.1065 307.4978 433.2595 307.9098C 433.4095 308.3238 433.7285 308.6478 434.0815 308.8128C 434.5185 309.0078 434.8055 308.8608 435.2765 308.8038C 435.4895 308.7978 435.7245 308.7118 435.9305 308.5668C 435.9305 308.5668 436.1075 308.4308 436.2625 308.1958C 436.4195 307.9628 436.5105 307.6248 436.5135 307.3918L436.5135 307.3918L437.7185 307.3918C 437.7035 308.2448 437.0725 308.9378 436.5935 309.4138" stroke="none" fill="#969CAD" fill-rule="nonzero" /><path id="277" transform="matrix(1 0 0 -1 0 792)" d="M493.7506 89.9055C 493.9816 92.1185 493.7986 95.49651 493.7926 96.1445C 493.8356 98.4355 493.6536 96.3535 493.7516 100.6205C 493.8486 104.8865 493.9306 108.8805 493.9116 110.0775C 493.9306 111.5825 493.9046 113.4745 493.8726 115.3455C 493.8456 117.2185 493.8186 119.0715 493.7986 120.4955C 493.6516 125.9405 493.6336 130.5605 493.6826 135.3725C 493.7316 140.1835 493.8476 145.1865 493.9676 151.3985C 493.8686 154.0575 493.9056 157.6715 493.9306 161.1695C 493.9556 164.6665 493.9696 168.0475 493.8246 170.2405C 494.0566 178.7285 493.9976 185.8555 493.9616 192.4565C 493.9266 199.0585 493.9136 205.1375 494.2386 211.5255C 494.2776 214.2275 494.2126 218.6565 494.1536 223.1545C 494.0956 227.6505 494.0436 232.2135 494.1096 235.1805C 494.3446 243.3335 494.2826 251.9845 494.2176 260.4735C 494.1536 268.9625 494.0856 277.2905 494.3066 284.8005C 494.1866 286.3875 494.1686 288.9325 494.1796 291.7755C 494.1856 293.1445 494.1926 294.5675 494.1996 295.9935C 492.0466 296.0015 489.8776 296.0095 487.8706 296.0165C 484.3396 296.0145 481.9126 296.0125 479.3536 296.0115C 476.7946 296.0075 474.1036 295.9905 470.0446 295.9305C 469.6886 296.0685 466.5556 296.0885 463.1466 296.0785C 459.7346 296.0655 456.0476 296.0525 454.5856 296.0465C 444.8996 295.9765 437.3416 295.9215 429.9066 295.8685C 422.4716 295.7905 415.1596 295.7145 405.9686 295.6195C 400.1326 295.7205 397.0346 295.8565 391.8956 295.7775C 387.1576 295.7475 380.7426 295.7065 375.0706 295.6695C 375.0776 294.7905 375.0836 293.9385 375.0896 293.1055L375.0896 293.1055L375.1956 293.1055C 374.9646 290.8935 375.1476 287.5145 375.1536 286.8665C 375.1106 284.5755 375.2926 286.6575 375.1946 282.3915C 375.0976 278.1245 375.0156 274.1305 375.0346 272.9335C 375.0156 271.4295 375.0416 269.5365 375.0736 267.6655C 375.1006 265.7925 375.1276 263.9405 375.1476 262.5165C 375.2946 257.0705 375.3126 252.4505 375.2636 247.6395C 375.2146 242.8275 375.0986 237.8245 374.9786 231.6135C 375.0776 228.9535 375.0406 225.3395 375.0156 221.8425C 374.9906 218.3445 374.9766 214.9645 375.1216 212.7705C 374.8896 204.2825 374.9486 197.1555 374.9846 190.5545C 375.0196 183.9515 375.0326 177.8745 374.7076 171.4855C 374.6686 168.7835 374.7336 164.3535 374.7926 159.8565C 374.8506 155.3605 374.9026 150.7975 374.8356 147.8315C 374.6016 139.6775 374.6636 131.0275 374.7286 122.5375C 374.7926 114.0495 374.8606 105.7205 374.6396 98.2115C 374.7596 96.6235 374.7776 94.0785 374.7666 91.2355C 374.7556 89.2155 374.7446 87.06651 374.7326 85.0085C 376.2526 85.0055 377.7026 85.0025 379.0806 85.0005C 382.6116 85.0025 385.0386 85.0035 387.5976 85.0055C 390.1566 85.00951 392.8476 85.02551 396.9066 85.0855C 397.2626 84.9475 400.3956 84.92751 403.8056 84.9375C 407.2166 84.9505 410.9036 84.9645 412.3656 84.96951C 422.0516 85.03951 429.6096 85.09451 437.0446 85.1485C 444.4796 85.2255 451.7916 85.3015 460.9826 85.3975C 466.8186 85.2955 469.9166 85.1595 475.0556 85.2385C 480.1946 85.27451 487.3776 85.3245 493.3066 85.3655L493.3066 85.3655L493.3066 86.6975C 489.8456 86.6105 486.7586 86.5315 483.3006 86.4445C 479.8416 86.3955 478.0916 86.7415 475.0556 86.6555C 471.7556 86.6135 467.5836 86.40051 465.4376 86.4675C 463.2916 86.5335 461.0876 86.5955 457.5566 86.5315C 452.0626 86.2415 445.7876 86.5465 438.2896 86.63451C 430.7916 86.7215 422.0726 86.5915 415.6666 86.3875C 402.5196 86.4205 393.2796 86.8035 379.0186 86.8035C 378.4306 86.80251 377.8476 86.8015 377.2796 86.8005C 377.0546 86.7995 376.8336 86.7985 376.6166 86.7975L376.6166 86.7975L376.5166 86.7925C 376.4436 91.37151 376.3756 95.7235 376.3066 100.0855C 376.2186 104.7365 376.1336 109.3975 376.1116 114.3245C 376.1246 117.0505 376.2156 118.9335 376.2986 120.9075C 376.3826 122.8805 376.4636 129.5875 376.4426 132.6725C 376.4996 147.5105 376.1946 157.5665 376.2316 170.5525C 376.2686 183.5385 376.6396 194.8125 376.6396 210.1665C 376.5706 219.9775 376.4936 230.9415 376.4166 241.8165C 376.3706 252.6915 376.5886 252.0085 376.6396 261.4645C 376.6446 264.2845 376.4786 277.9675 376.5296 280.2935C 376.5796 282.6225 376.6206 285.0635 376.5836 288.3355C 376.5546 289.7005 376.5236 291.1315 376.4926 292.6005L376.4926 292.6005L376.4726 293.8505L376.4726 293.8505L376.4676 294.1115L376.4676 294.1115L376.4626 294.1675L376.4626 294.1675L376.4536 294.2875L376.4536 294.2875L376.6396 294.3025L376.6396 294.3025L377.6346 294.3185L377.6346 294.3185L377.6346 294.4195C 379.6066 294.4795 381.5706 294.5435 383.6506 294.5725C 387.1096 294.6205 388.8596 294.2745 391.8956 294.3605C 395.1956 294.4035 399.3666 294.6165 401.5136 294.5495C 403.6596 294.4825 405.8636 294.4215 409.3946 294.4845C 414.8886 294.7745 421.1636 294.4695 428.6616 294.3815C 436.1596 294.2945 444.8786 294.4245 451.2856 294.6295C 464.4316 294.5955 473.6716 294.2125 487.9326 294.2125C 488.8676 294.2155 489.7916 294.2175 490.6926 294.2205C 491.1426 294.2235 491.5866 294.2255 492.0236 294.2285L492.0236 294.2285L492.3116 294.2315L492.3116 294.2315L492.3556 294.2345L492.3556 294.2345L492.4466 294.2405C 492.5186 290.0315 492.5886 286.0005 492.6576 281.9515C 492.7396 277.6195 492.8146 273.2675 492.8346 268.6875C 492.8216 265.9615 492.7306 264.0775 492.6476 262.1035C 492.5636 260.1315 492.4826 253.4235 492.5036 250.3385C 492.4466 235.5005 492.7516 225.4455 492.7146 212.4585C 492.6776 199.4725 492.3066 188.1985 492.3066 172.8445C 492.3756 163.0335 492.4526 152.0695 492.5296 141.1955C 492.5756 130.3205 492.3566 131.0025 492.3066 121.5465C 492.3016 118.7265 492.4676 105.0435 492.4166 102.7175C 492.3656 100.3885 492.3256 97.9475 492.3626 94.6755C 492.3916 93.3105 492.4226 91.8795 492.4536 90.4105C 492.4766 88.94151 492.5006 87.4335 492.5236 85.9155L492.5236 85.9155L493.8566 85.9155C 493.8486 86.5285 493.7086 89.5065 493.7506 89.9055" stroke="none" fill="#969CAD" fill-rule="nonzero" /></g><g clip-path="url(#10)"><path id="278" transform="matrix(1 0 0 -1 0 792)" d="M316.9349 154.4858C 317.4769 154.4598 318.0999 154.4288 318.6929 154.3998C 319.2789 154.3748 319.7669 154.3538 320.3199 154.3298C 320.8119 154.3098 321.3619 154.2698 321.9039 154.2958C 321.9039 154.2958 323.1049 154.3048 323.7779 154.3098C 326.1579 154.2528 333.2099 154.0008 334.4549 154.0338C 336.0169 154.0098 338.3849 154.1248 339.8679 154.1348C 345.5199 154.3728 349.4629 154.2198 355.9139 154.0598C 358.6809 154.2168 363.4219 153.9738 365.6999 154.1978C 374.5179 153.8788 380.5059 154.4238 387.1429 153.9568C 389.9499 153.9108 396.3459 154.1788 399.4279 154.0728C 407.8979 153.7218 417.3979 154.2568 425.1989 153.9258C 426.8479 154.1058 430.4859 153.9788 433.3759 153.9888C 437.0399 154.0028 438.4139 153.9638 442.6339 154.0528C 442.9999 153.8468 449.1409 153.9928 450.6589 153.9678C 460.7199 154.0918 466.3619 154.0908 475.9089 154.2868C 481.7789 154.1388 494.9459 154.2588 495.2649 154.7658C 495.3879 154.9618 495.3189 155.0968 494.1109 155.2058C 493.1849 155.2898 491.1779 155.3158 490.4329 155.2268C 487.2679 155.1688 484.8779 155.1298 482.1369 155.0168C 478.7119 154.9528 477.8009 155.2338 474.1299 155.1368C 468.4229 154.7028 459.0269 155.3348 452.3729 155.0288C 438.7159 155.0788 428.2799 155.1028 416.8299 155.0288C 413.9969 155.0478 412.9159 155.3048 409.7119 155.2728C 394.2979 155.3738 382.9999 155.3898 367.0509 155.3408C 356.8599 155.1658 344.2749 155.0208 334.4519 155.0648C 331.5259 155.0638 329.8509 155.2348 326.4509 155.1688C 325.0339 155.1218 321.8299 155.0178 321.7939 155.0168C 321.4609 154.9968 321.2009 154.9808 320.8889 154.9628C 320.2969 154.9238 319.6599 154.8818 319.0449 154.8408C 318.4309 154.8008 314.4489 154.7178 314.8909 154.5648C 315.5849 154.5648 316.3129 154.5178 316.9349 154.4858" stroke="none" fill="#969CAD" fill-rule="nonzero" /><path id="279" transform="matrix(1 0 0 -1 0 792)" d="M552.7266 154.3726C 552.5626 154.4036 552.3736 154.4426 552.1936 154.4666C 552.0156 154.4886 551.8676 154.5176 551.6996 154.5436C 551.5506 154.5666 551.3836 154.6096 551.2196 154.5856C 551.2196 154.5856 550.8546 154.5876 550.6506 154.5806C 549.9286 154.6476 547.7886 154.9316 547.4106 154.9046C 546.9366 154.9356 546.2177 154.8316 545.7676 154.8276C 544.0506 154.6156 542.8546 154.7876 540.8966 154.9766C 540.0556 154.8326 538.6176 155.0966 537.9256 154.8836C 535.2506 155.2436 533.4296 154.7256 531.4176 155.2226C 530.5656 155.2856 528.6226 155.0406 527.6876 155.1446C 525.1176 155.5076 522.2316 154.9856 519.8646 155.3276C 519.3636 155.1496 518.2596 155.2816 517.3826 155.2756C 516.2697 155.2666 515.8526 155.3076 514.5717 155.2246C 514.4616 155.4316 512.5966 155.2936 512.1356 155.3216C 509.0806 155.2106 507.3676 155.2196 504.4686 155.0366C 502.6876 155.1926 498.6896 155.0916 498.5906 154.5846C 498.5526 154.3896 498.5726 154.2546 498.9396 154.1436C 499.2196 154.0586 499.8296 154.0286 500.0556 154.1176C 501.0166 154.1706 501.7426 154.2066 502.5756 154.3156C 503.6146 154.3756 503.8906 154.0936 505.0056 154.1846C 506.7396 154.6106 509.5886 153.9656 511.6106 154.2626C 515.7556 154.1936 518.9236 154.1546 522.3996 154.2126C 523.2596 154.1906 523.5866 153.9316 524.5596 153.9586C 529.2386 153.8536 532.6676 153.7686 537.5096 153.7466C 540.6036 153.8746 544.4246 153.9626 547.4066 153.8736C 548.2946 153.8616 548.8016 153.6826 549.8346 153.7336C 550.2646 153.7836 551.2376 153.8616 551.2486 153.8646C 551.3496 153.8766 551.4296 153.8926 551.5236 153.9136C 551.7036 153.9536 551.8976 153.9876 552.0836 154.0266C 552.2706 154.0646 553.4796 154.1286 553.3466 154.2846C 553.1356 154.2866 552.9156 154.3376 552.7266 154.3726" stroke="none" fill="#969CAD" fill-rule="nonzero" /></g><path id="289" transform="matrix(1 0 0 -1 0 792)" d="M300.9068 27.5404L306.7428 21.7044L306.7428 21.7044L312.5788 27.5404" stroke="#505C7A" stroke-width="0.7" fill="none" /><g clip-path="url(#11)"><path id="505" transform="matrix(1 0 0 -1 0 792)" d="M119.36 232.25C 132.477 232.25 143.11 242.883 143.11 256C 143.11 269.117 132.477 279.75 119.36 279.75C 106.243 279.75 95.61 269.117 95.61 256C 95.61 242.883 106.243 232.25 119.36 232.25z" stroke="#F79C82" stroke-width="0.5" fill="none" /><path id="506" transform="matrix(1 0 0 -1 0 792)" d="M444.32 231.25C 457.437 231.25 468.07 241.883 468.07 255C 468.07 268.117 457.437 278.75 444.32 278.75C 431.203 278.75 420.57 268.117 420.57 255C 420.57 241.883 431.203 231.25 444.32 231.25z" stroke="#F79C82" stroke-width="0.5" fill="none" /><path id="507" transform="matrix(1 0 0 -1 0 792)" d="M28.575 771.895C 28.575 771.895 21.285 771.895 21.285 764.605L21.285 764.605L21.285 761.098C 21.285 761.098 21.285 753.808 28.575 753.808L28.575 753.808L53.653 753.808C 53.653 753.808 60.943 753.808 60.943 761.098L60.943 761.098L60.943 764.605C 60.943 764.605 60.943 771.895 53.653 771.895L53.653 771.895L28.575 771.895z" stroke="#969CAD" stroke-width="0.81" fill="none" /></g><g clip-path="url(#12)"><g transform="matrix(0.2399989 0 0 0.2396444 266.2878 103.9639)"><g transform="matrix(1 0 0 1 0 0)"><image x="0" y="0" xlink:href="img_07.png" width="1104" height="664" /></g></g></g><g clip-path="url(#13)"><path id="516" transform="matrix(1 0 0 -1 0 792)" d="M555.7761 529.5195C 554.8181 529.5544 553.7181 529.5945 552.6701 529.6324C 551.6341 529.6664 550.7721 529.6955 549.7941 529.7275C 548.9251 529.7545 547.9531 529.8065 546.9951 529.7795C 546.9951 529.7795 544.8711 529.7775 543.6831 529.7755C 539.4761 529.8595 527.0131 530.2065 524.8131 530.1755C 522.0521 530.2145 517.8651 530.0955 515.2441 530.0925C 505.2521 529.8495 498.2841 530.0585 486.8811 530.2925C 481.9901 530.1245 473.6101 530.4455 469.5831 530.1955C 453.9981 530.6345 443.4101 530.0284 431.6811 530.6285C 426.7211 530.7065 415.4131 530.4255 409.9671 530.5535C 394.9961 531.0055 378.2021 530.3785 364.4141 530.7654C 361.4981 530.5515 355.0681 530.7015 349.9601 530.6905C 343.4841 530.6735 341.0551 530.7205 333.5951 530.6144C 332.9491 530.8585 322.0941 530.6855 319.4101 530.7165C 301.6261 530.5674 291.6531 530.5695 274.7771 530.3365C 264.4021 530.5125 241.1271 530.3705 240.5641 529.7685C 240.3471 529.5365 240.4691 529.3755 242.6041 529.2465C 244.2401 529.1475 247.7881 529.1155 249.1041 529.2215C 254.6981 529.2905 258.9231 529.3375 263.7691 529.4715C 269.8231 529.5464 271.4331 529.2134 277.9211 529.3285C 288.0091 529.8434 304.6161 529.0934 316.3781 529.4565C 340.5171 529.3965 358.9641 529.3685 379.2031 529.4565C 384.2091 529.4315 386.1201 529.1345 391.7841 529.1605C 419.0271 529.0475 438.9971 528.9655 467.1871 528.8484C 485.2021 528.9855 507.4471 529.0724 524.8091 528.9515C 529.9801 528.9335 532.9401 528.7195 538.9491 528.7745C 541.4551 528.8195 547.1191 528.9214 547.1831 528.9225C 547.7711 528.9445 548.2321 528.9604 548.7821 528.9805C 549.8291 529.0225 550.9551 529.0685 552.0421 529.1125C 553.1292 529.1565 560.1671 529.2264 559.3881 529.4115C 558.1611 529.4155 556.8751 529.4764 555.7761 529.5195" stroke="none" fill="#969CAD" fill-rule="nonzero" /></g></g></g></svg>