<svg xmlns="http://www.w3.org/2000/svg" xmlns:xlink="http://www.w3.org/1999/xlink" id="body_2" preserveAspectRatio="xMinYMin meet" viewBox="0 0 816 1056"><defs><clipPath id="1"><path id="" clip-rule="evenodd" transform="matrix(1 0 0 1 0 0)" d="M0 792L0 0L0 0L612 0L612 0L612 792L612 792L0 792z" /></clipPath><clipPath id="2"><path id="" clip-rule="evenodd" transform="matrix(1 0 0 1 0 0)" d="M0 792L612 792L612 792L612 0L612 0L0 0z" /></clipPath><clipPath id="3"><path id="" clip-rule="evenodd" transform="matrix(1 0 0 1 0 0)" d="M66.852 606.496L281.531 606.496L281.531 606.496L281.531 490.897L281.531 490.897L66.852 490.897z" /></clipPath><clipPath id="4"><path id="" clip-rule="evenodd" transform="matrix(1 0 0 1 0 0)" d="M0 792L612 792L612 792L612 0L612 0L0 0z" /></clipPath><clipPath id="5"><path id="" clip-rule="evenodd" transform="matrix(1 0 0 1 0 0)" d="M0 792L612 792L612 792L612 0L612 0L0 0z" /></clipPath><clipPath id="6"><path id="" clip-rule="evenodd" transform="matrix(1 0 0 1 0 0)" d="M0 792L612 792L612 792L612 0L612 0L0 0z" /></clipPath><clipPath id="7"><path id="" clip-rule="evenodd" transform="matrix(1 0 0 1 0 0)" d="M330.698 605.832L544.86 605.832L544.86 605.832L544.86 490.271L544.86 490.271L330.698 490.271z" /></clipPath><clipPath id="8"><path id="" clip-rule="evenodd" transform="matrix(1 0 0 1 0 0)" d="M0 792L612 792L612 792L612 0L612 0L0 0z" /></clipPath></defs><g transform="matrix(1.333333 0 0 1.333333 0 0)"><g clip-path="url(#1)"><g clip-path="url(#2)"><path id="1" transform="matrix(1 0 0 -1 0 792)" d="M28.575 771.895C 28.575 771.895 21.285 771.895 21.285 764.605L21.285 764.605L21.285 761.098C 21.285 761.098 21.285 753.808 28.575 753.808L28.575 753.808L53.653 753.808C 53.653 753.808 60.943 753.808 60.943 761.098L60.943 761.098L60.943 764.605C 60.943 764.605 60.943 771.895 53.653 771.895L53.653 771.895L28.575 771.895z" stroke="#969CAD" stroke-width="0.81" fill="none" /></g><path id="184" transform="matrix(1 0 0 -1 0 792)" d="M163.4149 397.1028L304.6659 397.1028" stroke="#0077E5" stroke-width="0.6" fill="none" /><g clip-path="url(#3)"><g transform="matrix(0.2398035 0 0 0.2396875 65.77338 489.8624)"><g transform="matrix(1 0 0 1 0 0)"><image x="0" y="0" xlink:href="img_02.png" width="904" height="491" /></g></g></g><g clip-path="url(#4)"><path id="355" transform="matrix(1 0 0 -1 0 792)" d="M192.6117 177.0652L156.5807 177.0652C 157.2867 176.6952 158.6807 176.2372 161.2837 175.9452C 163.4287 175.7032 168.4687 175.5252 173.8937 175.4012C 179.3237 175.2772 185.1577 175.2052 188.9557 175.1682C 190.6557 175.1512 191.9467 175.1412 192.6117 175.1362z" stroke="none" fill="#E6E6EB" fill-rule="nonzero" /><path id="356" transform="matrix(1 0 0 -1 0 792)" d="M193.6117 178.0651L154.8877 178.0651L154.8877 178.0651L154.8877 177.5651C 154.8867 177.4821 154.9127 177.2891 155.0547 177.0631C 155.2677 176.7221 155.7067 176.3231 156.6227 175.9451C 157.5417 175.5671 158.9507 175.2031 161.1717 174.9521C 164.1467 174.6181 172.1007 174.4171 179.3517 174.2941C 186.5957 174.1721 193.1077 174.1331 193.1087 174.1331L193.1087 174.1331L193.6117 174.1301L193.6117 174.1301L193.6117 174.6331zM156.5807 177.0651L192.6117 177.0651L192.6117 177.0651L192.6117 175.1361C 191.9467 175.1411 190.6557 175.1511 188.9557 175.1681C 185.1577 175.2051 179.3237 175.2771 173.8937 175.4011C 168.4687 175.5251 163.4287 175.7031 161.2837 175.9461C 158.6807 176.2371 157.2867 176.6951 156.5807 177.0651M193.1117 174.6331L193.6117 174.6331z" stroke="none" fill="#EDEDF2" fill-rule="nonzero" /><path id="357" transform="matrix(1 0 0 -1 0 792)" d="M292.1869 286.7596C 292.1549 281.6326 292.2909 286.2916 292.2179 276.7396C 292.1639 267.1876 292.1139 258.2476 292.0979 255.5656C 292.1069 252.1996 292.1169 247.9636 292.1269 243.7726C 292.1479 239.5816 292.1679 235.4356 292.1829 232.2476C 292.2929 220.0576 292.3069 209.7146 292.2699 198.9426C 292.2419 193.5576 292.2129 188.0646 292.1829 182.1796C 292.1779 181.4446 292.1739 180.7026 292.1689 179.9546C 292.1659 179.5796 292.1639 179.2046 292.1609 178.8266L292.1609 178.8266L292.1579 178.2886L292.1579 178.2886L292.0899 178.0376L292.0899 178.0376L291.8419 177.9676L291.8419 177.9676L291.3119 177.9706C 290.9269 177.9736 290.5399 177.9756 290.1509 177.9786C 289.3739 177.9836 288.5889 177.9896 287.7959 177.9946C 284.6219 178.0156 281.3149 178.0376 277.8389 178.0606C 271.8829 177.9866 263.7919 178.0146 255.9629 178.0336C 248.1339 178.0526 240.5659 178.0626 235.6559 177.9536C 216.6549 178.1276 200.6999 178.0836 185.9209 178.0566C 171.1409 178.0296 157.5359 178.0206 143.2339 178.2646C 137.1859 178.2936 127.2669 178.2446 117.2009 178.2006C 107.1349 178.1566 96.91989 178.1186 90.27989 178.1676C 81.15289 178.2556 71.74789 178.2876 62.24889 178.2926L62.24889 178.2926L58.68289 178.2926L58.68289 178.2926L56.89789 178.2916C 56.47289 178.2926 56.61089 178.2896 56.5759 178.2946L56.5759 178.2946L56.56989 178.3076L56.56989 178.3076L56.56989 178.5136C 56.56589 180.8966 56.5629 183.2826 56.55989 185.6696C 56.54889 190.4426 56.53789 195.2166 56.52789 199.9676C 56.4789 218.9716 56.42789 237.6146 56.59389 254.4266C 56.50389 257.9816 56.49089 263.6786 56.49889 270.0426C 56.5089 276.4066 56.51988 283.4366 56.52989 289.6556C 56.52888 297.5236 56.52789 302.9306 56.52689 308.6326L56.52689 308.6326L56.58389 308.6916C 56.9119 308.6926 57.24188 308.6926 57.57289 308.6926C 58.30389 308.6936 59.04489 308.6946 59.80089 308.6956C 61.3129 308.6986 62.88789 308.7026 64.56589 308.7056C 67.9249 308.7186 71.7029 308.7336 76.2459 308.7516C 77.04089 308.6486 84.05589 308.6336 91.6899 308.6406C 99.32489 308.6506 107.5789 308.6606 110.8529 308.6646C 132.5359 308.7176 149.4569 308.7586 166.1019 308.7986C 182.7459 308.8566 199.1139 308.9136 219.6909 308.9856C 232.7549 308.9086 239.6879 308.8066 251.1939 308.8666C 262.7009 308.8936 278.7789 308.9306 292.0519 308.9616L292.0519 308.9616L292.0519 309.5786L292.0519 309.5786L292.0519 309.9606C 284.3039 309.8946 277.3939 309.8366 269.6509 309.7706C 261.9079 309.7346 257.9909 309.9936 251.1939 309.9296C 243.8049 309.8976 234.4679 309.7376 229.6639 309.7876C 224.8589 309.8376 219.9259 309.8836 212.0229 309.8356C 199.7239 309.6186 185.6729 309.8476 168.8879 309.9136C 152.1029 309.9786 132.5839 309.8806 118.2429 309.7276C 103.5279 309.7886 90.99789 309.8406 78.15689 309.8936C 71.73589 309.9266 65.23788 309.9596 58.34889 309.9946L58.34889 309.9946L57.05289 309.9996L57.05289 309.9996L56.24089 309.9966C 55.85989 309.9646 55.50789 309.7286 55.33688 309.3866C 55.15289 309.0716 55.22789 308.5366 55.21089 308.4056L55.21089 308.4056L55.20889 307.7466C 55.20689 307.3066 55.20589 306.8636 55.20389 306.4196C 55.19989 304.6446 55.19489 302.8386 55.1899 300.9996C 55.18588 297.3216 55.18188 293.5066 55.17789 289.5156C 55.28589 264.7416 55.3819 243.0306 55.48988 218.3546C 55.4809 212.2516 55.4119 208.0356 55.34889 203.6186C 55.33389 201.4096 55.30089 196.5516 55.26588 191.3826C 55.25789 188.7976 55.24989 186.1356 55.24289 183.6876C 55.24188 182.4636 55.23988 181.2936 55.23889 180.2126C 55.23889 179.6726 55.23889 179.1556 55.23889 178.6656C 55.23988 178.5396 55.23988 178.4146 55.23988 178.2926C 55.23589 178.0756 55.23788 177.8646 55.31088 177.6816C 55.44489 177.3076 55.7869 177.0416 56.1489 176.9816C 56.69888 176.9436 56.83488 176.9706 57.11989 176.9616L57.11989 176.9616L57.89288 176.9606C 58.40689 176.9606 58.91888 176.9606 59.4269 176.9596C 60.44489 176.9586 61.4529 176.9586 62.4509 176.9576C 64.44789 176.9586 66.40689 176.9586 68.33289 176.9586C 72.18388 176.9636 75.90189 176.9686 79.51988 176.9736C 86.75589 176.9956 93.59189 177.0166 100.2989 177.0366C 113.7129 177.0646 126.6079 177.0906 141.1439 177.1206C 170.2159 177.0206 195.4529 176.9336 229.8269 176.8156C 240.8079 176.8456 252.4349 176.8786 264.3589 176.9126C 270.3209 176.9256 276.3579 176.9386 282.4259 176.9516C 285.4599 176.9566 288.5009 176.9626 291.5449 176.9676L291.5449 176.9676L291.8529 176.9686C 292.0239 176.9676 292.1969 176.9656 292.3499 177.0126C 292.6629 177.0966 292.9289 177.3316 293.0559 177.6286C 293.1899 177.8916 293.1349 178.3706 293.1459 178.4856L293.1459 178.4856L293.1449 179.0566L293.1449 179.0566L293.1419 181.3406L293.1419 181.3406L293.1349 185.9066C 293.0999 210.2516 293.2639 208.7256 293.3019 229.8936C 293.2889 236.2066 293.2289 266.8356 293.2189 272.0466C 293.2569 277.2566 293.2869 282.7206 293.2599 290.0476C 293.2379 293.1026 293.2149 296.3066 293.1909 299.5956C 293.1819 301.2406 293.1729 302.9066 293.1639 304.5866C 293.1589 305.4266 293.1549 306.2696 293.1509 307.1156L293.1509 307.1156L293.1449 308.3856L293.1449 308.3856L293.1429 308.7036L293.1429 308.7036L293.1419 308.8636C 293.1389 308.9636 293.1439 308.9016 293.1339 309.0036L293.1339 309.0036L293.0939 309.1926C 292.9629 309.6416 292.5179 309.9686 292.0519 309.9606L292.0519 309.9606L292.0519 309.5786L292.0519 309.5786L292.0519 308.9616L292.0519 308.9616L292.1439 308.8976C 292.1479 308.5876 292.1529 308.2176 292.1589 307.8096C 292.1689 306.9776 292.1809 305.9876 292.1929 305.0126C 292.2159 303.0626 292.2339 301.1726 292.2189 300.7266C 292.0449 295.7736 292.1829 288.2106 292.1869 286.7596" stroke="none" fill="#969CAD" fill-rule="nonzero" /><path id="358" transform="matrix(1 0 0 -1 0 792)" d="M280.9629 280.5667C 280.9309 275.9937 281.0669 280.1497 280.9939 271.6297C 280.9399 263.1107 280.8889 255.1367 280.8739 252.7447C 280.8829 249.7417 280.8929 245.9637 280.9029 242.2257C 280.9239 238.4877 280.9439 234.7897 280.9589 231.9467C 281.0689 221.0737 281.0819 211.8487 281.0459 202.2417C 281.0179 197.4377 280.9889 192.5387 280.9589 187.2907C 280.9399 186.8957 281.0039 186.8127 280.8639 186.6697L280.8639 186.6697L280.6299 186.6127L280.6299 186.6127L280.1849 186.6167C 279.5179 186.6217 278.8439 186.6267 278.1639 186.6317C 276.8039 186.6417 275.4189 186.6517 274.0039 186.6627C 271.1729 186.6837 268.2229 186.7057 265.1229 186.7287C 259.8109 186.6547 252.5949 186.6827 245.6119 186.7017C 238.6289 186.7207 231.8789 186.7307 227.4999 186.6217C 210.5519 186.7957 196.3219 186.7517 183.1389 186.7247C 169.9569 186.6977 157.8229 186.6887 145.0659 186.9317C 139.6719 186.9617 130.8259 186.9127 121.8469 186.8687C 112.8689 186.8247 103.7589 186.7867 97.83589 186.8357C 89.69489 186.9237 81.30688 186.9557 72.83488 186.9607L72.83488 186.9607L69.65388 186.9607L69.65388 186.9607L68.06189 186.9597L68.06189 186.9597L67.8129 186.9597L67.8129 186.9597L67.80089 186.9627L67.80089 186.9627L67.79388 186.9727L67.79388 186.9727L67.79388 187.0477C 67.78989 189.1737 67.7869 191.3027 67.78389 193.4307C 67.77289 197.6887 67.76189 201.9457 67.75189 206.1837C 67.7029 223.1337 67.65189 239.7617 67.81789 254.7567C 67.72789 257.9267 67.71489 263.0087 67.72289 268.6847C 67.73289 274.3607 67.7439 280.6307 67.7549 286.1777C 67.75288 289.7027 67.75189 292.6767 67.75089 295.4077C 67.75089 296.7737 67.75189 298.0787 67.75189 299.3617L67.75189 299.3617L67.75288 299.9887L67.75288 299.9887L67.85089 300.0227C 68.48589 300.0227 69.1209 300.0227 69.75989 300.0237C 74.8689 300.0397 80.2419 300.0567 88.34689 300.0837C 89.05589 299.9807 95.3129 299.9657 102.1219 299.9727C 108.9309 299.9827 116.2929 299.9927 119.2129 299.9967C 138.5529 300.0497 153.6449 300.0907 168.4909 300.1307C 183.3359 300.1887 197.9349 300.2457 216.2879 300.3177C 227.9399 300.2407 234.1239 300.1387 244.3859 300.1987C 254.6489 300.2257 268.9899 300.2627 280.8279 300.2937L280.8279 300.2937L280.8279 300.9107L280.8279 300.9107L280.8279 301.2927C 273.9169 301.2267 267.7549 301.1687 260.8479 301.1027C 253.9419 301.0667 250.4489 301.3257 244.3859 301.2617C 237.7959 301.2297 229.4679 301.0697 225.1829 301.1197C 220.8969 301.1697 216.4969 301.2157 209.4479 301.1677C 198.4789 300.9507 185.9469 301.1797 170.9759 301.2457C 156.0049 301.3107 138.5959 301.2127 125.8049 301.0597C 112.6799 301.1207 101.5049 301.1727 90.05089 301.2257C 84.32489 301.2587 78.52888 301.2917 72.38489 301.3267C 70.81689 301.3327 69.22789 301.3397 67.61189 301.3457C 67.24789 301.3537 66.91089 301.2027 66.68689 300.9297C 66.4509 300.6677 66.40388 300.2807 66.42389 299.9377C 66.4229 299.5377 66.42189 299.1367 66.42088 298.7347C 66.41888 297.9287 66.41589 297.1157 66.41389 296.2957C 66.4099 293.0147 66.40588 289.6127 66.40189 286.0527C 66.40189 263.9567 66.67789 244.5927 66.7139 222.5827C 66.7049 217.1407 66.63589 213.3797 66.57289 209.4397C 66.55789 207.4697 66.52489 203.1367 66.48988 198.5257C 66.48189 196.2207 66.47389 193.8457 66.46689 191.6627C 66.4659 190.5717 66.4639 189.5277 66.46289 188.5637C 66.46289 188.0827 66.46289 187.6207 66.4639 187.1837C 66.47589 187.0487 66.4119 186.5167 66.58389 186.2367C 66.73988 185.9197 67.0499 185.7037 67.37289 185.6497C 67.85689 185.6117 68.02589 185.6387 68.26089 185.6297L68.26089 185.6297L68.94989 185.6287C 69.4079 185.6287 69.86389 185.6287 70.31789 185.6277C 71.22589 185.6267 72.12489 185.6267 73.01489 185.6257C 74.79588 185.6267 76.54388 185.6267 78.26089 185.6267C 81.69589 185.6317 85.01189 185.6367 88.23889 185.6417C 94.69289 185.6637 100.7909 185.6847 106.7729 185.7047C 118.7359 185.7327 130.2379 185.7587 143.2029 185.7887C 169.1329 185.7617 191.6419 185.4837 222.2999 185.4837C 232.0949 185.5147 242.4649 185.5467 253.0999 185.5807C 258.4179 185.5937 263.8019 185.6067 269.2139 185.6197C 271.9199 185.6247 274.6329 185.6307 277.3479 185.6357L277.3479 185.6357L279.3839 185.6397L279.3839 185.6397L280.4029 185.6417C 280.5089 185.6537 280.8959 185.6087 281.1559 185.6957C 281.4319 185.7787 281.6669 185.9807 281.7969 186.2367C 281.8599 186.3657 281.9009 186.5027 281.9119 186.6497C 281.9219 186.7797 281.9149 186.9987 281.9169 187.0507L281.9169 187.0507L281.9159 187.5597L281.9159 187.5597L281.9139 188.5777L281.9139 188.5777L281.9109 190.6137C 281.8759 212.3277 282.0399 210.9667 282.0779 229.8467C 282.0649 235.4777 282.0049 262.7967 281.9949 267.4437C 282.0329 272.0917 282.0629 276.9647 282.0359 283.4997C 282.0139 286.2247 281.9909 289.0817 281.9669 292.0157C 281.9579 293.4827 281.9489 294.9687 281.9399 296.4677C 281.9349 297.2167 281.9309 297.9687 281.9269 298.7227L281.9269 298.7227L281.9209 299.8557L281.9209 299.8557L281.9189 300.1397L281.9189 300.1397L281.9179 300.2407L281.9179 300.2407L281.9079 300.3537C 281.8889 300.4867 281.8609 300.5647 281.8159 300.6647C 281.6449 301.0427 281.2419 301.2987 280.8279 301.2927L280.8279 301.2927L280.8279 300.9107L280.8279 300.9107L280.8279 300.2937L280.8279 300.2937L280.9179 300.2297C 280.9259 300.2447 280.9239 300.0177 280.9269 299.8697C 280.9299 299.7037 280.9319 299.5267 280.9349 299.3417C 280.9449 298.5997 280.9569 297.7167 280.9689 296.8467C 280.9919 295.1077 281.0099 293.4217 280.9949 293.0237C 280.8209 288.6067 280.9589 281.8607 280.9629 280.5667" stroke="none" fill="#969CAD" fill-rule="nonzero" /><path id="359" transform="matrix(1 0 0 -1 0 792)" d="M52.3103 162.7615C 52.6933 162.6865 53.1323 162.5905 53.5513 162.5335C 53.9643 162.4795 54.3083 162.4085 54.6993 162.3455C 55.0463 162.2905 55.4343 162.1855 55.8173 162.2465C 55.8173 162.2465 56.1763 162.2475 56.5563 162.2525L56.5563 162.2525L56.5563 162.1645C 56.7813 162.1755 57.8733 162.3855 58.0193 162.3225C 58.8303 161.9755 60.0693 162.2515 60.3063 162.2595C 61.1463 162.1955 60.3833 162.4675 61.9473 162.3215C 63.5113 162.1755 64.9753 162.0525 65.4143 162.0815C 65.9663 162.0525 66.6593 162.0925 67.3453 162.1405C 68.0323 162.1885 68.7113 162.2455 69.2333 162.2515C 71.2293 162.4715 72.9223 162.4985 74.68629 162.4245C 76.4503 162.3515 78.2843 162.1785 80.56129 161.9975C 81.5373 162.1465 82.8613 162.0915 84.1433 162.0535C 85.4253 162.0155 86.6653 161.9945 87.4683 162.2115C 90.5803 161.8635 93.1923 161.9515 95.6133 162.0055C 98.03329 162.0595 100.2613 162.0785 102.6033 161.5915C 103.5933 161.5325 105.2173 161.6305 106.8653 161.7175C 108.5143 161.8055 110.1863 161.8835 111.2743 161.7835C 114.2633 161.4325 117.4343 161.5245 120.5463 161.6215C 123.6583 161.7185 126.7113 161.8205 129.4633 161.4895C 130.0463 161.6685 130.9793 161.6955 132.0213 161.6795C 133.0633 161.6635 134.2143 161.6065 135.2323 161.6155C 136.5273 161.6295 137.4163 161.6175 138.3543 161.6235C 139.2923 161.6295 140.2793 161.6545 141.7673 161.7435C 141.8973 161.5375 143.0463 161.5075 144.2963 161.5225C 145.5463 161.5375 146.8983 161.5975 147.4343 161.5705C 150.9843 161.6965 153.7553 161.7585 156.4813 161.8385C 159.2063 161.9175 161.8863 162.0155 165.2563 162.2115C 167.3953 162.0585 168.5303 161.8545 170.4143 161.9735C 172.2993 162.0925 174.9323 162.0655 177.1053 162.1645L177.1053 162.1645L177.1053 162.1985C 179.6863 162.3595 181.7623 162.6565 181.8663 163.1265C 181.9533 163.5185 181.9043 163.7895 181.0513 164.0075C 180.3983 164.1745 178.9813 164.2285 178.4563 164.0495C 177.9603 164.0235 177.5563 163.9975 177.1053 163.9735C 177.1053 163.9735 174.7053 163.8545 173.4373 163.7825C 172.1693 163.7095 171.5283 164.2285 170.4143 164.0995C 169.2053 164.0355 167.6763 163.7165 166.8893 163.8165C 166.1023 163.9165 165.2943 164.0085 164.0003 163.9125C 161.9863 163.4785 159.6853 163.9365 156.9373 164.0675C 154.1883 164.1985 150.9923 164.0035 148.6443 163.6965C 143.8253 163.7465 140.4373 164.3215 135.2093 164.3215C 131.1533 164.3215 127.5973 163.7695 123.5573 163.6965C 122.5573 163.7155 121.8673 163.8535 121.1443 163.9785C 120.4203 164.1035 117.9613 164.2255 116.8313 164.1935C 111.3913 164.2785 107.7053 163.8225 102.9453 163.8775C 98.1843 163.9325 94.0523 164.4885 88.42329 164.4885C 84.8273 164.3475 80.8083 164.2245 76.8213 164.1555C 72.8353 164.0865 73.0853 164.4135 69.6183 164.4885C 68.5843 164.4975 63.5693 164.2475 62.7163 164.3235C 61.8623 164.3995 60.9683 164.4605 59.7683 164.4045C 59.2683 164.3525 58.7433 164.3075 58.2053 164.2685C 57.6663 164.2285 57.1133 164.1945 56.5563 164.1625L56.5563 164.1625L56.5563 164.1305C 56.1103 164.0875 55.7503 164.0535 55.7403 164.0505C 55.5053 164.0185 55.3213 163.9775 55.1023 163.9235C 54.6843 163.8215 54.2343 163.7345 53.8003 163.6345C 53.3663 163.5375 50.5563 163.3635 50.8673 162.9745C 51.3573 162.9715 51.8713 162.8475 52.3103 162.7615" stroke="none" fill="#969CAD" fill-rule="nonzero" /><path id="360" transform="matrix(1 0 0 -1 0 792)" d="M296.3237 163.8528C 296.0067 163.8908 295.6427 163.9378 295.2957 163.9668C 294.9527 163.9938 294.6667 164.0288 294.3437 164.0608C 294.0557 164.0878 293.7337 164.1408 293.4167 164.1108C 293.4167 164.1108 293.1187 164.1098 292.8037 164.1078L292.8037 164.1078L292.8037 164.1518C 292.6167 164.1458 291.7117 164.0408 291.5907 164.0718C 290.9187 164.2458 289.8917 164.1078 289.6947 164.1038C 288.9987 164.1358 289.6317 163.9998 288.3347 164.0728C 287.0377 164.1458 285.8237 164.2068 285.4607 164.1928C 285.0027 164.2068 284.4277 164.1878 283.8597 164.1638C 283.2907 164.1398 282.7277 164.1108 282.2947 164.1078C 280.6397 163.9978 279.2357 163.9848 277.7737 164.0208C 276.3117 164.0578 274.7907 164.1448 272.9037 164.2348C 272.0947 164.1608 270.9967 164.1878 269.9337 164.2068C 268.8707 164.2258 267.8437 164.2368 267.1777 164.1278C 264.5977 164.3018 262.4317 164.2578 260.4257 164.2308C 258.4197 164.2038 256.5727 164.1938 254.6307 164.4378C 253.8097 164.4678 252.4637 164.4188 251.0977 164.3748C 249.7307 164.3308 248.3447 164.2918 247.4427 164.3418C 244.9647 164.5168 242.3357 164.4708 239.7557 164.4228C 237.1767 164.3738 234.6457 164.3228 232.3637 164.4888C 231.8807 164.3998 231.1077 164.3858 230.2437 164.3938C 229.3797 164.4018 228.4257 164.4308 227.5807 164.4258C 226.5077 164.4188 225.7707 164.4248 224.9927 164.4218C 224.2147 164.4188 223.3977 164.4058 222.1637 164.3618C 222.0557 164.4648 221.1037 164.4798 220.0677 164.4728C 219.0307 164.4648 217.9107 164.4348 217.4657 164.4488C 214.5227 164.3858 212.2257 164.3548 209.9657 164.3148C 207.7067 164.2748 205.4847 164.2258 202.6917 164.1278C 200.9177 164.2038 199.9767 164.3058 198.4147 164.2468C 196.8527 164.1868 194.6707 164.2008 192.8687 164.1518L192.8687 164.1518L192.8687 164.1348C 190.7287 164.0538 189.0077 163.9048 188.9217 163.6698C 188.8497 163.4748 188.8907 163.3388 189.5967 163.2298C 190.1387 163.1458 191.3137 163.1198 191.7487 163.2088C 192.1597 163.2218 192.4947 163.2348 192.8687 163.2468C 192.8687 163.2468 194.8587 163.3058 195.9097 163.3428C 196.9607 163.3788 197.4917 163.1188 198.4147 163.1838C 199.4177 163.2158 200.6857 163.3758 201.3377 163.3258C 201.9897 163.2758 202.6597 163.2288 203.7327 163.2768C 205.4017 163.4948 207.3097 163.2658 209.5877 163.1998C 211.8667 163.1338 214.5157 163.2318 216.4627 163.3848C 220.4577 163.3598 223.2667 163.0728 227.5997 163.0728C 230.9627 163.0728 233.9107 163.3488 237.2597 163.3848C 238.0887 163.3758 238.6607 163.3068 239.2607 163.2448C 239.8597 163.1818 241.8987 163.1208 242.8357 163.1368C 247.3457 163.0948 250.4007 163.3228 254.3477 163.2948C 258.2937 163.2678 261.7197 162.9888 266.3857 162.9888C 269.3677 163.0598 272.6987 163.1218 276.0037 163.1558C 279.3087 163.1908 279.1017 163.0268 281.9757 162.9888C 282.8327 162.9848 286.9907 163.1098 287.6977 163.0718C 288.4047 163.0338 289.1467 163.0038 290.1407 163.0308C 290.5557 163.0578 290.9907 163.0798 291.4367 163.0998C 291.8837 163.1188 292.3417 163.1358 292.8037 163.1518L292.8037 163.1518L292.8037 163.1678C 293.1727 163.1898 293.4717 163.2068 293.4797 163.2078C 293.6747 163.2238 293.8277 163.2448 294.0097 163.2718C 294.3557 163.3228 294.7287 163.3658 295.0887 163.4168C 295.4477 163.4648 297.7777 163.5518 297.5197 163.7458C 297.1137 163.7478 296.6877 163.8098 296.3237 163.8528" stroke="none" fill="#969CAD" fill-rule="nonzero" /><path id="361" transform="matrix(1 0 0 -1 0 792)" d="M154.804 173.9981C 154.767 173.8521 154.554 173.2881 154.554 173.2881L154.554 173.2881L154.534 173.2171C 154.534 173.2171 154.631 169.9561 154.705 168.4851C 154.607 167.8671 154.549 165.1281 154.549 165.1281C 154.568 164.9911 154.589 164.8591 154.604 164.7191C 154.565 164.4481 154.534 163.8151 154.534 163.8151L154.534 163.8151L154.558 163.7391L154.558 163.7391L155.843 163.7391C 155.906 164.1821 156.017 165.0761 155.953 165.4941C 156.024 166.5771 156.075 167.9541 155.989 168.8391C 155.72 170.0521 156.128 170.5401 155.836 171.7251C 155.794 172.1031 155.747 173.0001 155.81 173.2881C 155.81 173.2881 155.651 173.8871 155.569 174.0281C 155.402 174.3111 155.375 174.5861 155.096 174.6311C 154.887 174.6651 154.864 174.2361 154.804 173.9981" stroke="none" fill="#969CAD" fill-rule="nonzero" /><path id="362" transform="matrix(1 0 0 -1 0 792)" d="M193.704 170.6534C 193.803 171.5434 193.862 175.4864 193.862 175.4864C 193.844 175.6834 193.823 175.8734 193.807 176.0734C 193.856 176.5534 193.856 177.0604 193.856 177.5654L193.856 177.5654L192.588 177.5654C 192.499 177.0014 192.359 175.7514 192.445 174.9594C 192.373 173.4004 192.32 171.4184 192.407 170.1434C 192.679 168.3974 192.269 167.6954 192.562 165.9894C 192.605 165.4444 192.653 164.1534 192.588 163.7394L192.588 163.7394L193.856 163.7394C 193.855 165.8704 193.783 168.4624 193.704 170.6534" stroke="none" fill="#969CAD" fill-rule="nonzero" /></g><g clip-path="url(#5)"><path id="364" transform="matrix(1 0 0 -1 0 792)" d="M306 697.3049C 313.092 697.3049 318.841 703.0539 318.841 710.1459C 318.841 717.2369 313.092 722.9858 306 722.9858C 298.908 722.9858 293.159 717.2369 293.159 710.1459C 293.159 703.0539 298.908 697.3049 306 697.3049z" stroke="#0077E5" stroke-width="1" fill="none" /></g><path id="374" transform="matrix(1 0 0 -1 0 792)" d="M300.9068 27.5404L306.7428 21.7044L306.7428 21.7044L312.5788 27.5404" stroke="#505C7A" stroke-width="0.7" fill="none" /><g clip-path="url(#6)"><path id="375" transform="matrix(1 0 0 -1 0 792)" d="M239.5595 204.35C 254.8305 204.35 267.2095 216.729 267.2095 232C 267.2095 247.271 254.8305 259.65 239.5595 259.65C 224.2885 259.65 211.9095 247.271 211.9095 232C 211.9095 216.729 224.2885 204.35 239.5595 204.35z" stroke="#F79C82" stroke-width="0.5" fill="none" /></g><path id="376" transform="matrix(1 0 0 -1 0 792)" d="M198.1867 232L211.6597 232" stroke="#F79C82" stroke-width="0.5" fill="none" /><path id="377" transform="matrix(1 0 0 -1 0 792)" d="M201.654 228.7764L198.187 232.0004L198.187 232.0004L201.654 235.2234" stroke="#F79C82" stroke-width="0.5" fill="none" /><g clip-path="url(#7)"><g transform="matrix(0.2120382 0 0 0.2120382 330.6974 490.2716)"><g transform="matrix(1 0 0 1 0 0)"><image x="0" y="0" xlink:href="img_03.png" width="1015" height="545" /></g></g></g><g clip-path="url(#8)"><path id="386" transform="matrix(1 0 0 -1 0 792)" d="M452.7859 177.0651L423.5019 177.0651L423.5019 177.0651L422.7249 175.1391C 423.3349 175.1451 424.2919 175.1541 425.4889 175.1681C 427.6259 175.1931 430.5279 175.2331 433.5839 175.2941C 439.6859 175.4141 446.4359 175.6221 448.8369 175.9441C 450.9529 176.2261 452.1069 176.6581 452.7019 177.0131C 452.7309 177.0311 452.7589 177.0481 452.7859 177.0651" stroke="none" fill="#E6E6EB" fill-rule="nonzero" /><path id="387" transform="matrix(1 0 0 -1 0 792)" d="M454.335 178.0652L422.827 178.0652L422.827 178.0652L421.238 174.1282L421.238 174.1282L421.985 174.1332C 421.986 174.1332 427.486 174.1722 433.603 174.2942C 439.729 174.4172 446.44 174.6172 448.97 174.9532C 451.482 175.2902 452.788 175.8282 453.512 176.3492C 454.238 176.8632 454.345 177.4212 454.335 177.5652zM422.725 175.1392L423.502 177.0652L423.502 177.0652L452.786 177.0652C 452.759 177.0482 452.731 177.0302 452.702 177.0132C 452.107 176.6582 450.953 176.2252 448.837 175.9442C 446.436 175.6222 439.686 175.4142 433.583 175.2942C 430.528 175.2332 427.626 175.1932 425.489 175.1682C 424.292 175.1542 423.335 175.1442 422.725 175.1392" stroke="none" fill="#F5F5F7" fill-rule="nonzero" /><path id="388" transform="matrix(1 0 0 -1 0 792)" d="M554.0641 287.8802C 554.0321 282.8132 554.1681 287.4182 554.0951 277.9772C 554.0411 268.5372 553.9911 259.7002 553.9751 257.0502C 553.9841 253.7232 553.9941 249.5372 554.0041 245.3942C 554.0251 241.2522 554.0451 237.1552 554.0601 234.0042C 554.1701 221.9562 554.1841 211.7342 554.1471 201.0882C 554.1191 195.7652 554.0911 190.3362 554.0601 184.5202C 554.0511 183.0662 554.0411 181.5882 554.0311 180.0812L554.0311 180.0812L554.0251 179.5252C 554.0231 179.3732 553.9891 179.2252 553.9461 179.0802C 553.8501 178.7932 553.6701 178.5342 553.4331 178.3402C 553.1941 178.1482 552.9031 178.0272 552.5981 177.9962C 552.3011 177.9792 551.8451 177.9962 551.4731 177.9942C 548.3371 178.0152 545.0681 178.0372 541.6331 178.0612C 535.7461 177.9862 527.7501 178.0142 520.0121 178.0332C 512.2741 178.0522 504.7951 178.0622 499.9421 177.9542C 481.1621 178.1282 465.3941 178.0832 450.7861 178.0572C 436.1791 178.0302 422.7331 178.0202 408.5971 178.2642C 402.6201 178.2932 392.8171 178.2452 382.8681 178.2012C 372.9201 178.1572 362.8241 178.1182 356.2611 178.1682C 347.2401 178.2552 337.9451 178.2882 328.5581 178.2922L328.5581 178.2922L325.0331 178.2932L325.0331 178.2932L323.2681 178.2922C 322.5851 178.2802 322.3411 178.2862 321.9941 178.5222C 321.6861 178.7402 321.4731 179.0942 321.4511 179.4682L321.4511 179.4682L321.4431 181.1802L321.4431 181.1802L321.4371 184.7182C 321.4261 189.4352 321.4151 194.1532 321.4051 198.8492C 321.3561 217.6312 321.3051 236.0572 321.4711 252.6732C 321.3811 256.1862 321.3681 261.8182 321.3761 268.1072C 321.3861 274.3972 321.3971 281.3452 321.4071 287.4912C 321.4061 295.3032 321.4051 300.6732 321.4041 306.3352L321.4041 306.3352L321.4041 307.3912C 321.4101 307.6262 321.4721 307.8592 321.6001 308.0622C 321.8751 308.4742 322.2791 308.7312 322.8871 308.6952C 324.3821 308.6992 325.9371 308.7022 327.5971 308.7062C 330.9161 308.7192 334.6491 308.7342 339.1401 308.7512C 339.9261 308.6482 346.8591 308.6332 354.4041 308.6412C 361.9491 308.6502 370.1071 308.6602 373.3431 308.6642C 394.7741 308.7172 411.4971 308.7582 427.9471 308.7982C 444.3981 308.8562 460.5751 308.9132 480.9121 308.9852C 493.8231 308.9092 500.6761 308.8072 512.0481 308.8662C 523.4201 308.8932 539.3111 308.9302 552.4291 308.9612L552.4291 308.9612L552.4291 309.5782L552.4291 309.5782L552.4291 309.9612C 544.7711 309.8952 537.9421 309.8362 530.2891 309.7702C 522.6361 309.7342 518.7661 309.9942 512.0481 309.9292C 504.7451 309.8972 495.5171 309.7372 490.7681 309.7872C 486.0201 309.8372 481.1441 309.8842 473.3331 309.8362C 461.1771 309.6182 447.2911 309.8472 430.7021 309.9132C 414.1121 309.9792 394.8211 309.8812 380.6471 309.7282C 366.1031 309.7882 353.7201 309.8402 341.0291 309.8932C 337.8561 309.9112 334.6631 309.9292 331.4141 309.9482C 329.7891 309.9562 328.1491 309.9642 326.4911 309.9732C 325.6611 309.9762 324.8271 309.9802 323.9871 309.9842L323.9871 309.9842L322.7241 309.9892C 322.1731 309.9892 321.6131 309.8142 321.1681 309.4792C 320.7161 309.1542 320.3791 308.6742 320.2091 308.1372C 320.1241 307.8742 320.0941 307.5652 320.0931 307.3182L320.0931 307.3182L320.0901 306.6722C 320.0871 305.8082 320.0841 304.9382 320.0811 304.0602C 320.0771 302.3052 320.0721 300.5212 320.0671 298.7032C 320.0631 295.0682 320.0591 291.2972 320.0551 287.3532C 320.1631 262.8682 320.2591 241.4102 320.3671 217.0222C 320.3581 210.9902 320.2891 206.8232 320.2261 202.4572C 320.2111 200.2742 320.1781 195.4732 320.1431 190.3642C 320.1351 187.8092 320.1271 185.1782 320.1201 182.7592C 320.1191 182.1542 320.1181 181.5622 320.1171 180.9892C 320.1171 180.7022 320.1171 180.4192 320.1161 180.1422C 320.1231 179.8482 320.1011 179.6382 320.1361 179.2532C 320.2991 177.8202 321.6141 176.9232 322.7211 176.9632C 355.5531 177.0252 377.8001 177.0672 406.5321 177.1212C 435.2651 177.0212 460.2081 176.9342 494.1811 176.8152C 505.0341 176.8462 516.5251 176.8782 528.3101 176.9122C 534.2031 176.9252 540.1691 176.9382 546.1661 176.9512C 547.6651 176.9542 549.1671 176.9572 550.6691 176.9602L550.6691 176.9602L551.7961 176.9622L551.7961 176.9622L552.3601 176.9632C 552.5621 176.9622 552.8381 176.9812 553.0661 177.0462C 554.0231 177.2822 554.7921 178.0942 554.9761 179.0632C 555.0611 179.5962 555.0111 179.9202 555.0241 180.3052L555.0241 180.3052L555.0221 181.4332L555.0221 181.4332L555.0191 183.6902L555.0191 183.6902L555.0121 188.2032C 554.9771 212.2642 555.1411 210.7562 555.1791 231.6772C 555.1671 237.9172 555.1061 268.1892 555.0961 273.3392C 555.1341 278.4882 555.1641 283.8892 555.1371 291.1302C 555.1151 294.1492 555.0921 297.3162 555.0681 300.5672C 555.0591 302.1922 555.0501 303.8392 555.0411 305.4992L555.0411 305.4992L555.0341 306.7472L555.0341 306.7472L555.0311 307.3722C 555.0271 307.6432 554.9841 307.9152 554.9001 308.1742C 554.5681 309.2162 553.5301 309.9772 552.4291 309.9612L552.4291 309.9612L552.4291 309.5782L552.4291 309.5782L552.4291 308.9612C 552.6841 308.9652 553.2731 308.8862 553.6991 308.3512C 553.9121 308.0942 554.0441 307.7422 554.0521 307.3552C 554.0581 306.8872 554.0641 306.4022 554.0701 305.9202C 554.0931 303.9932 554.1111 302.1252 554.0961 301.6842C 553.9221 296.7892 554.0601 289.3142 554.0641 287.8802" stroke="none" fill="#969CAD" fill-rule="nonzero" /><path id="389" transform="matrix(1 0 0 -1 0 792)" d="M544.3401 280.7693C 544.3081 276.2003 544.4441 280.3523 544.3711 271.8403C 544.3171 263.3283 544.2671 255.3603 544.2511 252.9713C 544.2601 249.9713 544.2701 246.1963 544.2801 242.4613C 544.3011 238.7273 544.3211 235.0323 544.3361 232.1913C 544.4461 221.3273 544.4601 212.1103 544.4231 202.5113C 544.3951 197.7123 544.3661 192.8173 544.3361 187.5733L544.3361 187.5733L544.3321 187.0803C 544.3321 186.9703 544.3071 186.8963 544.2561 186.8163L544.2561 186.8163L544.0491 186.6473C 543.9601 186.6123 543.9061 186.6133 543.7061 186.6163C 543.0391 186.6213 542.3661 186.6263 541.6871 186.6313C 540.3281 186.6413 538.9441 186.6523 537.5301 186.6623C 534.7011 186.6833 531.7541 186.7053 528.6561 186.7283C 523.3491 186.6543 516.1391 186.6823 509.1621 186.7013C 502.1851 186.7203 495.4411 186.7303 491.0661 186.6223C 474.1321 186.7963 459.9141 186.7513 446.7441 186.7243C 433.5731 186.6973 421.4491 186.6883 408.7031 186.9323C 403.3131 186.9613 394.4751 186.9123 385.5041 186.8683C 376.5341 186.8253 367.4311 186.7863 361.5131 186.8363C 353.3801 186.9233 344.9981 186.9563 336.5341 186.9603L336.5341 186.9603L333.3561 186.9603L333.3561 186.9603L331.7651 186.9603L331.7651 186.9603L331.3671 186.9603L331.3671 186.9603L331.2711 186.9603L331.2711 186.9603L331.2591 186.9613L331.2591 186.9613L331.2381 186.9663L331.2381 186.9663L331.1741 187.0363C 331.1701 189.1023 331.1661 191.1703 331.1611 193.2393C 331.1501 197.4923 331.1391 201.7463 331.1291 205.9803C 331.0801 222.9163 331.0291 239.5303 331.1951 254.5123C 331.1051 257.6793 331.0921 262.7573 331.1001 268.4283C 331.1101 274.0993 331.1211 280.3643 331.1321 285.9063C 331.1301 289.4283 331.1291 292.3993 331.1281 295.1283C 331.1281 296.4933 331.1291 297.7973 331.1291 299.0793L331.1291 299.0793L331.1321 299.9063L331.1321 299.9063L331.2401 300.0183C 331.8231 300.0193 332.4051 300.0213 332.9921 300.0233C 338.0971 300.0393 343.4651 300.0573 351.5631 300.0833C 352.2721 299.9803 358.5231 299.9653 365.3261 299.9723C 372.1301 299.9823 379.4851 299.9923 382.4031 299.9963C 401.7261 300.0493 416.8051 300.0903 431.6381 300.1303C 446.4711 300.1883 461.0571 300.2453 479.3941 300.3173C 491.0361 300.2413 497.2151 300.1393 507.4691 300.1983C 517.7221 300.2253 532.0511 300.2623 543.8791 300.2933L543.8791 300.2933L543.8791 300.9103L543.8791 300.9103L543.8791 301.2923C 536.9741 301.2273 530.8171 301.1683 523.9161 301.1023C 517.0161 301.0663 513.5251 301.3253 507.4691 301.2613C 500.8841 301.2293 492.5631 301.0693 488.2811 301.1193C 483.9991 301.1693 479.6031 301.2153 472.5611 301.1673C 461.6001 300.9503 449.0791 301.1793 434.1211 301.2453C 419.1631 301.3113 401.7691 301.2133 388.9891 301.0603C 375.8751 301.1203 364.7101 301.1723 353.2661 301.2253C 347.5441 301.2583 341.7531 301.2913 335.6141 301.3263C 334.8471 301.3303 334.0741 301.3333 333.2951 301.3363L333.2951 301.3363L332.1231 301.3413L332.1231 301.3413L331.5331 301.3433L331.5331 301.3433L331.2111 301.3423C 331.0361 301.3353 330.8611 301.2973 330.6991 301.2283C 330.3741 301.0913 330.1071 300.8363 329.9521 300.5193C 329.8741 300.3603 329.8251 300.1863 329.8091 300.0093C 329.7961 299.7963 329.8051 299.7793 329.8011 299.6543C 329.8001 299.2553 329.7991 298.8543 329.7981 298.4523C 329.7961 297.6473 329.7931 296.8353 329.7911 296.0153C 329.7871 292.7373 329.7831 289.3383 329.7791 285.7813C 329.7791 263.7043 330.0551 244.3563 330.0911 222.3663C 330.0821 216.9283 330.0131 213.1703 329.9511 209.2343C 329.9351 207.2663 329.9021 202.9363 329.8671 198.3303C 329.8591 196.0263 329.8511 193.6543 329.8441 191.4723C 329.8431 190.3823 329.8411 189.3393 329.8401 188.3763C 329.8421 187.8793 329.8441 187.4033 329.8451 186.9513C 329.8971 186.1713 330.5991 185.6123 331.2711 185.6313C 360.8751 185.6933 380.9341 185.7353 406.8411 185.7893C 432.7491 185.7613 455.2391 185.4833 485.8711 185.4833C 495.6571 185.5143 506.0181 185.5463 516.6441 185.5803C 521.9571 185.5933 527.3371 185.6063 532.7441 185.6193C 535.4481 185.6253 538.1581 185.6303 540.8711 185.6363L540.8711 185.6363L542.9061 185.6393L542.9061 185.6393L543.9551 185.6443C 544.5451 185.6713 545.0791 186.0953 545.2371 186.6613C 545.2801 186.7953 545.2941 186.9623 545.2941 187.0793L545.2941 187.0793L545.2941 187.3333L545.2941 187.3333L545.2931 187.8423L545.2931 187.8423L545.2911 188.8593L545.2911 188.8593L545.2881 190.8943C 545.2531 212.5893 545.4171 211.2293 545.4551 230.0933C 545.4421 235.7193 545.3821 263.0143 545.3721 267.6583C 545.4101 272.3013 545.4401 277.1703 545.4131 283.6993C 545.3911 286.4223 545.3681 289.2773 545.3441 292.2083C 545.3351 293.6743 545.3261 295.1593 545.3171 296.6563C 545.3121 297.4043 545.3081 298.1563 545.3041 298.9093L545.3041 298.9093L545.3011 299.4753L545.3011 299.4753L545.2991 299.7583C 545.2981 299.8263 545.3051 299.9873 545.2701 300.1573C 545.1471 300.8053 544.5391 301.3033 543.8791 301.2923L543.8791 301.2923L543.8791 300.9103L543.8791 300.9103L543.8791 300.2933C 543.9541 300.2923 544.0731 300.2743 544.1791 300.1713C 544.2981 300.0483 544.3171 299.9723 544.3121 299.5283C 544.3221 298.7863 544.3341 297.9043 544.3461 297.0353C 544.3691 295.2973 544.3871 293.6133 544.3721 293.2163C 544.1981 288.8023 544.3361 282.0623 544.3401 280.7693" stroke="none" fill="#969CAD" fill-rule="nonzero" /><path id="390" transform="matrix(1 0 0 -1 0 792)" d="M424.9432 163.6252L425.1842 163.5112L425.1842 163.5112L425.4072 163.4172L425.4072 163.4172L425.6242 163.3672L425.6242 163.3672L425.7682 163.3702L425.7682 163.3702L425.7682 163.3262L425.7682 163.3262L425.9152 163.3802C 425.8832 163.3912 426.1272 163.4022 426.2612 163.4072C 426.4052 163.4132 426.5132 163.4142 426.5552 163.4062C 427.4752 163.2322 428.8812 163.3702 429.1502 163.3742C 430.1042 163.3422 429.2372 163.4782 431.0132 163.4052C 432.7882 163.3322 434.4502 163.2712 434.9482 163.2852C 435.5742 163.2712 436.3612 163.2902 437.1402 163.3142C 437.9192 163.3352 438.6902 163.3552 439.2822 163.3702C 441.5482 163.4802 443.4702 163.4932 445.4722 163.4572C 447.4742 163.4202 449.5552 163.3332 452.1402 163.2432C 453.2472 163.3172 454.7512 163.2902 456.2062 163.2712C 457.6612 163.2522 459.0672 163.2412 459.9802 163.3502C 463.5112 163.1762 466.4772 163.2202 469.2242 163.2472C 471.9702 163.2742 474.4992 163.2842 477.1572 163.0402C 478.2812 163.0102 480.1252 163.0592 481.9962 163.1032C 483.8662 163.1472 485.7652 163.1862 486.9992 163.1362C 490.3922 162.9612 493.9912 163.0072 497.5232 163.0552C 501.0552 163.1042 504.5202 163.1552 507.6452 162.9892C 508.3052 163.0782 509.3642 163.0922 510.5472 163.0842C 511.7302 163.0742 513.0362 163.0622 514.1922 163.0522C 515.6622 163.0542 516.6712 163.0552 517.7362 163.0562C 518.8012 163.0592 519.9202 163.0722 521.6092 163.1162C 521.7572 163.0132 523.0612 162.9982 524.4792 163.0052C 525.8982 163.0152 527.4332 163.0252 528.0412 163.0292C 532.0712 163.0822 535.2162 163.1232 538.3092 163.1632C 541.4032 163.2032 544.4452 163.2522 548.2702 163.3502C 550.6972 163.2742 551.9862 163.1722 554.1242 163.2312C 555.1942 163.2462 556.4752 163.2642 557.7982 163.2832C 558.4602 163.2882 559.1312 163.2942 559.7922 163.2992L559.7922 163.2992L560.2532 163.3042L560.2532 163.3042L560.3362 163.3102L560.3362 163.3102L560.4992 163.3262L560.4992 163.3262L560.4992 163.3432C 561.0002 163.4242 561.4032 163.5732 561.4232 163.8082C 561.4402 164.0042 561.4302 164.1392 561.2652 164.2482C 561.1382 164.3322 560.8632 164.3582 560.7612 164.2692C 560.6642 164.2552 560.5862 164.2442 560.4992 164.2312C 560.4722 164.2312 560.4402 164.2162 560.1762 164.1972C 559.3152 164.1772 558.2742 164.1522 557.5552 164.1352C 556.1162 164.0992 555.3882 164.3592 554.1242 164.2942C 552.7512 164.2622 551.0162 164.1022 550.1232 164.1532C 549.2302 164.2032 548.3132 164.2492 546.8442 164.2012C 544.5582 163.9832 541.9472 164.2122 538.8272 164.2782C 535.7082 164.3442 532.0802 164.2462 529.4152 164.0932C 523.9452 164.1182 520.1002 164.4052 514.1662 164.4052C 509.5622 164.4052 505.5272 164.1292 500.9402 164.0932C 499.8062 164.1022 499.0222 164.1712 498.2012 164.2332C 497.3812 164.2962 494.5902 164.3572 493.3062 164.3412C 487.1322 164.3832 482.9492 164.1552 477.5452 164.1832C 472.1422 164.2112 467.4522 164.4892 461.0632 164.4892C 456.9812 164.4372 452.4202 164.3792 447.8952 164.3222C 443.3702 164.2872 443.6542 164.4512 439.7192 164.4892C 438.5462 164.4932 432.8532 164.3682 431.8852 164.4062C 430.9172 164.4442 429.9012 164.4742 428.5392 164.4472C 427.9722 164.4252 427.3762 164.4022 426.7652 164.3782C 426.4892 164.3692 426.2102 164.3602 425.9292 164.3512L425.9292 164.3512L425.7682 164.3262L425.7682 164.3262L425.7682 164.3102L425.7682 164.3102L425.6092 164.2702L425.6092 164.2702L425.4852 164.2062L425.4852 164.2062L425.2322 164.0612C 425.1482 164.0132 424.6022 163.9262 424.6632 163.7322C 424.7582 163.7302 424.8582 163.6682 424.9432 163.6252" stroke="none" fill="#969CAD" fill-rule="nonzero" /><path id="391" transform="matrix(1 0 0 -1 0 792)" d="M316.3558 163.6252L316.5968 163.5112L316.5968 163.5112L316.8198 163.4172L316.8198 163.4172L317.0368 163.3672L317.0368 163.3672L317.1808 163.3702L317.1808 163.3702L317.1808 163.3262L317.1808 163.3262L317.3278 163.3802C 317.3068 163.3912 317.5138 163.4022 317.6288 163.4072C 317.7518 163.4132 317.8448 163.4142 317.8798 163.4062C 318.6688 163.2322 319.8728 163.3702 320.1028 163.3742C 320.9198 163.3422 320.1778 163.4782 321.6978 163.4052C 323.2188 163.3322 324.6418 163.2712 325.0688 163.2852C 325.6038 163.2712 326.2788 163.2902 326.9458 163.3142C 327.6128 163.3392 328.2728 163.3672 328.7798 163.3702C 330.7198 163.4802 332.3668 163.4932 334.0808 163.4572C 335.7958 163.4202 337.5778 163.3332 339.7908 163.2432C 340.7388 163.3172 342.0268 163.2902 343.2728 163.2712C 344.5198 163.2522 345.7238 163.2412 346.5048 163.3502C 349.5298 163.1762 352.0688 163.2202 354.4218 163.2472C 356.7738 163.2742 358.9398 163.2842 361.2158 163.0402C 362.1788 163.0102 363.7568 163.0592 365.3598 163.1032C 366.9618 163.1472 368.5878 163.1862 369.6448 163.1362C 372.5498 162.9612 375.6318 163.0072 378.6568 163.0552C 381.6818 163.1042 384.6498 163.1552 387.3248 162.9892C 387.8908 163.0782 388.7978 163.0922 389.8108 163.0842C 390.8238 163.0742 391.9428 163.0622 392.9328 163.0522C 394.1908 163.0542 395.0548 163.0552 395.9668 163.0562C 396.8788 163.0592 397.8378 163.0722 399.2838 163.1162C 399.4108 163.0132 400.5268 162.9982 401.7418 163.0052C 402.9578 163.0132 404.2708 163.0432 404.7918 163.0292C 408.2438 163.0822 410.9368 163.1232 413.5858 163.1632C 414.9108 163.1872 416.2238 163.2102 417.6158 163.2352C 417.9808 163.2432 418.3508 163.2502 418.7268 163.2582L418.7268 163.2582L419.1678 163.2652L419.1678 163.2652L419.3878 163.2682L419.3878 163.2682L419.4978 163.2702L419.4978 163.2702L419.5388 163.3622C 419.6148 163.6392 419.6908 163.9192 419.7678 164.2012C 419.9548 164.9242 420.1508 165.6762 420.3568 166.4692C 421.0078 168.4452 421.4128 169.4762 421.8648 171.2522C 422.1058 172.1362 422.3938 173.1952 422.6908 174.2882C 422.8428 174.8342 422.9978 175.3882 423.1498 175.9332L423.1498 175.9332L423.2548 176.3152L423.2548 176.3152L423.2718 176.3962L423.2718 176.3962L423.3018 176.5572L423.3018 176.5572L423.2858 176.5612C 423.3478 177.0652 423.3168 177.4932 423.0968 177.5782C 422.9128 177.6492 422.7808 177.6782 422.6298 177.5492C 422.5138 177.4502 422.4118 177.1932 422.4698 177.0702C 422.4558 176.9742 422.4448 176.8962 422.4328 176.8082C 422.4268 176.7872 422.4278 176.7382 422.3788 176.4992C 422.1928 175.7852 421.9688 174.9222 421.8138 174.3252C 421.5058 173.1312 421.0828 172.6052 420.8438 171.5482C 420.5478 170.4092 420.2878 168.9372 420.0268 168.2172C 419.7668 167.4962 419.5038 166.7542 419.1998 165.5332C 419.1578 165.2902 419.1078 165.0452 419.0508 164.7982C 419.0048 164.6062 418.9578 164.4122 418.9108 164.2142L418.9108 164.2142L418.8848 164.1162L418.8848 164.1162L418.7878 164.1092L418.7878 164.1092L418.5668 164.1122C 418.2938 164.1192 418.0148 164.1262 417.7298 164.1332C 416.5928 164.1782 415.3648 164.2262 414.0298 164.2782C 411.3578 164.3442 408.2518 164.2462 405.9688 164.0932C 401.2838 164.1182 397.9918 164.4052 392.9098 164.4052C 388.9668 164.4052 385.5118 164.1292 381.5838 164.0932C 380.6118 164.1022 379.9408 164.1712 379.2378 164.2332C 378.5348 164.2962 376.1448 164.3572 375.0458 164.3412C 369.7588 164.3832 366.1758 164.1552 361.5488 164.1832C 356.9208 164.2112 352.9038 164.4892 347.4328 164.4892C 343.9368 164.4372 340.0308 164.3792 336.1558 164.3222C 332.2808 164.2872 332.5238 164.4512 329.1548 164.4892C 328.1498 164.4932 323.2748 164.3682 322.4448 164.4062C 321.6158 164.4442 320.7458 164.4742 319.5798 164.4472C 319.0938 164.4252 318.5838 164.4022 318.0608 164.3782C 317.8238 164.3692 317.5838 164.3602 317.3418 164.3512L317.3418 164.3512L317.1808 164.3262L317.1808 164.3262L317.1808 164.3102L317.1808 164.3102L317.0218 164.2702L317.0218 164.2702L316.8978 164.2062L316.8978 164.2062L316.6448 164.0612C 316.5608 164.0132 316.0148 163.9262 316.0758 163.7322C 316.1708 163.7302 316.2708 163.6682 316.3558 163.6252" stroke="none" fill="#969CAD" fill-rule="nonzero" /><path id="392" transform="matrix(1 0 0 -1 0 792)" d="M457.2783 164.4656C 457.2753 164.6126 457.3263 165.1986 457.3263 165.1986L457.3263 165.1986L457.3263 165.2696C 457.3263 165.2696 456.3513 168.2886 455.8823 169.6426C 455.8093 170.2466 455.1243 172.8216 455.1243 172.8216C 455.0693 172.9446 455.0133 173.0616 454.9613 173.1886C 454.9243 173.4526 454.7833 174.0516 454.7833 174.0516L454.7833 174.0516L454.7373 174.1196L454.7373 174.1196L454.7293 174.1686C 454.7293 174.1686 454.2553 174.7246 453.8743 174.6426C 453.6073 174.5856 453.4243 174.3346 453.4713 174.0086C 453.4833 173.9326 453.6453 172.5796 453.8743 172.0886C 454.1003 171.0576 454.4233 169.7576 454.7443 168.9546C 455.3313 167.8966 455.0713 167.3276 455.6723 166.3016C 455.8143 165.9596 456.1033 165.1356 456.1193 164.8486C 456.1193 164.8486 456.4343 164.3336 456.5513 164.2246C 456.7883 164.0076 456.8893 163.7576 457.1693 163.7926C 457.3783 163.8196 457.2843 164.2256 457.2783 164.4656" stroke="none" fill="#969CAD" fill-rule="nonzero" /><path id="393" transform="matrix(1 0 0 -1 0 792)" d="M521.1 206.35C 536.371 206.35 548.75 218.729 548.75 234C 548.75 249.271 536.371 261.65 521.1 261.65C 505.829 261.65 493.45 249.271 493.45 234C 493.45 218.729 505.829 206.35 521.1 206.35z" stroke="#F79C82" stroke-width="0.5" fill="none" /></g><path id="394" transform="matrix(1 0 0 -1 0 792)" d="M479.7288 234L493.1998 234" stroke="#F79C82" stroke-width="0.5" fill="none" /><path id="395" transform="matrix(1 0 0 -1 0 792)" d="M483.196 230.7764L479.729 234.0004L479.729 234.0004L483.196 237.2234" stroke="#F79C82" stroke-width="0.5" fill="none" /></g></g></svg>