<svg xmlns="http://www.w3.org/2000/svg" xmlns:xlink="http://www.w3.org/1999/xlink" id="body_6" preserveAspectRatio="xMinYMin meet" viewBox="0 0 816 1056"><defs><clipPath id="1"><path id="" clip-rule="evenodd" transform="matrix(1 0 0 1 0 0)" d="M0 792L0 0L0 0L612 0L612 0L612 792L612 792L0 792z" /></clipPath><clipPath id="2"><path id="" clip-rule="evenodd" transform="matrix(1 0 0 1 0 0)" d="M0 792L612 792L612 792L612 0L612 0L0 0z" /></clipPath><clipPath id="3"><path id="" clip-rule="evenodd" transform="matrix(1 0 0 1 0 0)" d="M120.038 462L491.963 462L491.963 462L491.963 245.14L491.963 245.14L120.038 245.14z" /></clipPath></defs><g transform="matrix(1.333333 0 0 1.333333 0 0)"><g clip-path="url(#1)"><path id="1" transform="matrix(1 0 0 -1 0 792)" d="M130.185 647.7338L308.839 647.7338" stroke="#0077E5" stroke-width="0.6" fill="none" /><path id="292" transform="matrix(1 0 0 -1 0 792)" d="M300.9068 27.5404L306.7428 21.7044L306.7428 21.7044L312.5788 27.5404" stroke="#505C7A" stroke-width="0.7" fill="none" /><g clip-path="url(#2)"><path id="293" transform="matrix(1 0 0 -1 0 792)" d="M28.575 771.895C 28.575 771.895 21.285 771.895 21.285 764.605L21.285 764.605L21.285 761.098C 21.285 761.098 21.285 753.808 28.575 753.808L28.575 753.808L53.653 753.808C 53.653 753.808 60.943 753.808 60.943 761.098L60.943 761.098L60.943 764.605C 60.943 764.605 60.943 771.895 53.653 771.895L53.653 771.895L28.575 771.895z" stroke="#969CAD" stroke-width="0.81" fill="none" /></g><g clip-path="url(#3)"><g transform="matrix(0.2860962 0 0 0.2860962 120.0375 245.1391)"><g transform="matrix(1 0 0 1 0 0)"><image x="0" y="0" xlink:href="img_12.png" width="1300" height="758" /></g></g></g></g></g></svg>