<svg xmlns="http://www.w3.org/2000/svg" xmlns:xlink="http://www.w3.org/1999/xlink" id="body_5" preserveAspectRatio="xMinYMin meet" viewBox="0 0 816 1056"><defs><clipPath id="1"><path id="" clip-rule="evenodd" transform="matrix(1 0 0 1 0 0)" d="M0 792L0 0L0 0L612 0L612 0L612 792L612 792L0 792z" /></clipPath><clipPath id="2"><path id="" clip-rule="evenodd" transform="matrix(1 0 0 1 0 0)" d="M0 792L612 792L612 792L612 0L612 0L0 0z" /></clipPath><clipPath id="3"><path id="" clip-rule="evenodd" transform="matrix(1 0 0 1 0 0)" d="M0 792L612 792L612 792L612 0L612 0L0 0z" /></clipPath><clipPath id="4"><path id="" clip-rule="evenodd" transform="matrix(1 0 0 1 0 0)" d="M124.45 601.135L480.388 601.135L480.388 601.135L480.388 372.836L480.388 372.836L124.45 372.836z" /></clipPath></defs><g transform="matrix(1.333333 0 0 1.333333 0 0)"><g clip-path="url(#1)"><g clip-path="url(#2)"><path id="656" transform="matrix(1 0 0 -1 0 792)" d="M306 697.3049C 313.092 697.3049 318.841 703.0539 318.841 710.1459C 318.841 717.2369 313.092 722.9858 306 722.9858C 298.908 722.9858 293.159 717.2369 293.159 710.1459C 293.159 703.0539 298.908 697.3049 306 697.3049z" stroke="#0077E5" stroke-width="1" fill="none" /></g><path id="666" transform="matrix(1 0 0 -1 0 792)" d="M300.9068 27.5404L306.7428 21.7044L306.7428 21.7044L312.5788 27.5404" stroke="#505C7A" stroke-width="0.7" fill="none" /><g clip-path="url(#3)"><path id="667" transform="matrix(1 0 0 -1 0 792)" d="M28.575 771.895C 28.575 771.895 21.285 771.895 21.285 764.605L21.285 764.605L21.285 761.098C 21.285 761.098 21.285 753.808 28.575 753.808L28.575 753.808L53.653 753.808C 53.653 753.808 60.943 753.808 60.943 761.098L60.943 761.098L60.943 764.605C 60.943 764.605 60.943 771.895 53.653 771.895L53.653 771.895L28.575 771.895z" stroke="#969CAD" stroke-width="0.81" fill="none" /></g><g clip-path="url(#4)"><g transform="matrix(0.2398507 0 0 0.2398604 124.4499 372.8364)"><g transform="matrix(1 0 0 1 0 0)"><image x="0" y="0" xlink:href="img_10.png" width="1484" height="956" /></g></g></g></g></g></svg>